<svg width="25" height="24" viewBox="0 0 25 24" fill="none" xmlns="http://www.w3.org/2000/svg">
<path d="M13.2101 14.83L17.4501 10.59C17.5438 10.497 17.6182 10.3864 17.6689 10.2646C17.7197 10.1427 17.7458 10.012 17.7458 9.88C17.7458 9.74799 17.7197 9.61728 17.6689 9.49542C17.6182 9.37356 17.5438 9.26296 17.4501 9.17C17.2627 8.98375 17.0092 8.87921 16.7451 8.87921C16.4809 8.87921 16.2274 8.98375 16.0401 9.17L12.5001 12.71L8.96005 9.17C8.77269 8.98375 8.51924 8.87921 8.25505 8.87921C7.99086 8.87921 7.73741 8.98375 7.55005 9.17C7.45737 9.26344 7.38404 9.37426 7.33428 9.49609C7.28452 9.61793 7.25929 9.74839 7.26005 9.88C7.25929 10.0116 7.28452 10.1421 7.33428 10.2639C7.38404 10.3857 7.45737 10.4966 7.55005 10.59L11.7901 14.83C11.883 14.9237 11.9936 14.9981 12.1155 15.0489C12.2373 15.0997 12.368 15.1258 12.5001 15.1258C12.6321 15.1258 12.7628 15.0997 12.8846 15.0489C13.0065 14.9981 13.1171 14.9237 13.2101 14.83Z" fill="#535353"/>
</svg>
