<svg xmlns="http://www.w3.org/2000/svg" shape-rendering="geometricPrecision" text-rendering="geometricPrecision" image-rendering="optimizeQuality" fill-rule="evenodd" clip-rule="evenodd" viewBox="0 0 512 282.9"><path d="M310.57 196.12h-7.49v11.8c0 4.62-3.78 8.4-8.41 8.4h-4.94c-4.61 0-8.39-3.78-8.39-8.4v-11.8h-50.85v11.8c0 4.62-3.78 8.4-8.39 8.4h-4.94c-4.62 0-8.41-3.78-8.41-8.4v-11.8h-6.39c-4.37-.07-6.48-2.42-6.81-6.56V93.21c-2.44.25-3.65.82-4.24 2.1v27.52h-5.33c-3.31 0-6.02-2.7-6.02-6.03v-16.27c0-3.26 2.62-5.93 5.86-6.02.51-4.73 2.55-6.11 9.9-6.46 1.02-8.26 6.63-14.36 16.87-18.3 21.96-4.03 63.61-4.45 86.87 0 10.25 3.95 15.85 10.04 16.87 18.31 7.44.37 9.45 1.78 9.92 6.57 3.14.38 5.84 1.67 5.84 5.91v16.26c0 3.33-2.71 6.03-6.02 6.03h-5.33V95.24c-.59-1.26-1.8-1.81-4.24-2.04v95.43c0 5.53-1.79 7.49-5.93 7.49zm91.66 70.81c0 .66.06 1.29.19 1.88l-281.98-.02V14.08h281.97l.09-.36a9.33 9.33 0 00-.27 2.23v15.69c0 10.33 15.69 10.33 15.69 0V15.95c0-.8-.09-1.55-.27-2.23l.08.36h68.35c3.23.02 6.19 1.36 8.33 3.49 2.13 2.14 3.47 5.1 3.47 8.32v231.1c0 3.23-1.34 6.18-3.47 8.31a11.92 11.92 0 01-8.33 3.51h-68.35c.13-.59.19-1.22.19-1.88v-15.69c0-10.33-15.69-10.33-15.69 0v15.69zm0-47.06c0 10.33 15.69 10.33 15.69 0v-15.69c0-10.33-15.69-10.33-15.69 0v15.69zm0-47.06c0 10.33 15.69 10.33 15.69 0v-15.68c0-10.33-15.69-10.33-15.69 0v15.68zm0-47.06c0 10.33 15.69 10.33 15.69 0v-15.68c0-10.33-15.69-10.33-15.69 0v15.68zm0-47.05c0 10.33 15.69 10.33 15.69 0V63.01c0-10.33-15.69-10.33-15.69 0V78.7zM25.92 0l460.16.01c7.12-.03 13.61 2.89 18.31 7.58 4.69 4.69 7.61 11.18 7.61 18.3v231.1c0 7.13-2.93 13.61-7.61 18.29-4.7 4.7-11.19 7.62-18.31 7.62l-460.16-.02c-7.08.03-13.57-2.89-18.27-7.59l-.05-.05C2.93 270.55 0 264.08 0 256.99v-52.35c0-3.61 2.72-6.59 6.22-7.01 12.23-2.64 22.95-9.42 30.58-18.77 7.6-9.33 12.16-21.26 12.16-34.27 0-13.01-4.56-24.95-12.16-34.27-7.75-9.5-18.68-16.35-31.15-18.89a7.029 7.029 0 01-5.62-6.89L0 25.91C0 18.78 2.92 12.29 7.61 7.6 12.31 2.9 18.8-.02 25.92 0zm173.23 171.74l.35-8.36c.19-1.47.97-2.11 2.35-1.87 7.07 3.73 13.73 8.02 20.12 12.7 1.36.9.82 2.65-.97 2.32l-18.91-1.37c-1.84-.31-2.73-1.54-2.94-3.42zm44.8 10.73h24.15c.65 0 1.19.53 1.19 1.18v4.04c0 .66-.54 1.18-1.19 1.18h-24.15c-.65 0-1.18-.52-1.18-1.18v-4.04c0-.65.53-1.18 1.18-1.18zm62.94.06c1.73 0 3.14 1.41 3.14 3.14 0 1.73-1.41 3.14-3.14 3.14-1.73 0-3.13-1.41-3.13-3.14 0-1.73 1.4-3.14 3.13-3.14zm-103.33 0c1.73 0 3.14 1.41 3.14 3.14 0 1.73-1.41 3.14-3.14 3.14-1.73 0-3.14-1.41-3.14-3.14 0-1.73 1.41-3.14 3.14-3.14zm108.86-10.79l-.35-8.36c-.19-1.47-.97-2.11-2.35-1.87-7.07 3.73-13.74 8.02-20.13 12.7-1.36.9-.81 2.65.98 2.32l18.9-1.37c1.85-.31 2.74-1.54 2.95-3.42zm-72.8-97.6h32.82c1.09 0 2 .9 2 2v5.23c0 1.09-.91 1.99-2 1.99h-32.82c-1.09 0-2-.89-2-1.99v-5.23c0-1.1.9-2 2-2zm-34.51 15.84h101.37c1.35 0 2.46 1.1 2.46 2.46v53.47c0 1.35-1.09 2.1-2.46 2.45-34.76 10.57-66.6 10.13-101.37 0-1.36-.36-2.45-1.1-2.45-2.45V92.43c-.01-1.36 1.1-2.45 2.45-2.45z"/></svg>