<svg width="173" height="118" viewBox="0 0 173 118" fill="none" xmlns="http://www.w3.org/2000/svg">
<path d="M88.3328 97.9418C81.4932 97.9418 74.6555 96.7264 68.1462 94.2952C55.1287 89.4329 44.9899 80.2908 39.5981 68.5521C28.4674 44.3201 41.2739 16.4401 68.1462 6.40308C81.1633 1.54077 95.5023 1.54077 108.52 6.40308C121.537 11.2654 131.676 20.4079 137.068 32.1462C148.199 56.3782 135.392 84.2583 108.52 94.2956C102.012 96.7261 95.1712 97.9418 88.3328 97.9418ZM88.3328 8.08349C82.2592 8.08349 76.186 9.16293 70.4057 11.3222C46.5413 20.2357 35.168 44.9952 45.0529 66.5146C49.8416 76.9392 58.8451 85.058 70.4057 89.3761C81.966 93.6943 94.6996 93.6943 106.26 89.3761C130.124 80.4626 141.498 55.7035 131.613 34.1837C126.824 23.7594 117.821 15.6403 106.26 11.3222C100.48 9.16329 94.4064 8.08349 88.3328 8.08349Z" fill="#FFD039"/>
<path d="M88.3328 79.4566C84.1499 79.4566 79.9678 78.7133 75.9869 77.2264C68.0254 74.2525 61.8247 68.6611 58.5271 61.4819C51.7193 46.6618 59.5517 29.6107 75.9869 23.4719C83.948 20.4984 92.7177 20.4984 100.679 23.4719C108.641 26.4455 114.841 32.0372 118.139 39.2164C124.947 54.0365 117.114 71.088 100.679 77.2267C96.699 78.713 92.5153 79.4566 88.3328 79.4566ZM88.3328 24.4995C84.6184 24.4995 80.9039 25.1598 77.3686 26.4802C62.7733 31.9318 55.8176 47.0746 61.8628 60.2356C64.7916 66.6112 70.2983 71.5768 77.3686 74.2177C84.4389 76.8586 92.2268 76.8586 99.2967 74.2177C113.892 68.7662 120.848 53.6237 114.802 40.4623C111.874 34.0868 106.367 29.1212 99.2967 26.4802C95.7621 25.1598 92.0477 24.4995 88.3328 24.4995Z" fill="#FFD039"/>
<path d="M84.7136 45.1276C83.5551 45.1276 82.456 44.5089 81.9848 43.4834L66.6047 10.0021C66.5842 9.96269 66.5645 9.92293 66.546 9.88211L63.7787 3.8548C63.1551 2.49635 63.8704 0.939119 65.3773 0.376499C66.8838 -0.18612 68.6107 0.459206 69.2346 1.81766L71.9472 7.72534C71.9677 7.76439 71.9874 7.80414 72.0055 7.84461L87.4404 41.4456C88.0647 42.804 87.3495 44.3613 85.8426 44.9239C85.4729 45.0623 85.0899 45.1276 84.7136 45.1276Z" fill="#ED2E2E"/>
<path d="M110.159 100.523C109.001 100.523 107.902 99.9048 107.431 98.8796L89.2284 59.251C88.6041 57.8926 89.3193 56.3353 90.8262 55.7727C92.3323 55.2097 94.0596 55.8551 94.6836 57.2135L112.886 96.8414C113.51 98.1999 112.795 99.7571 111.288 100.32C110.918 100.458 110.536 100.523 110.159 100.523Z" fill="#ED2E2E"/>
<path d="M91.9508 45.1276C91.5741 45.1276 91.1915 45.0622 90.8223 44.9242C89.3158 44.3615 88.6001 42.8043 89.2244 41.4459L107.431 1.81686C108.055 0.458761 109.784 -0.185855 111.289 0.377119C112.795 0.940094 113.51 2.49768 112.885 3.85613L94.6796 43.4834C94.2084 44.5088 93.1093 45.1276 91.9508 45.1276Z" fill="#ED2E2E"/>
<path d="M66.5051 100.523C66.1288 100.523 65.7462 100.458 65.3769 100.32C63.8704 99.7578 63.1548 98.2006 63.7783 96.8418L81.9809 57.2131C82.6049 55.8547 84.3334 55.2101 85.8383 55.7723C87.3448 56.335 88.0604 57.8925 87.4361 59.2506L69.2343 98.8786C68.7635 99.9044 67.664 100.523 66.5051 100.523Z" fill="#ED2E2E"/>
<path d="M97.0781 49.7458C95.9196 49.7458 94.8205 49.1271 94.3493 48.1016C93.725 46.7431 94.4402 45.1859 95.9471 44.6233L139.895 28.2093C141.401 27.6474 143.128 28.292 143.752 29.6508C144.376 31.0093 143.66 32.5665 142.153 33.1291L98.2067 49.5427C97.8374 49.6804 97.4544 49.7458 97.0781 49.7458Z" fill="#ED2E2E"/>
<path d="M35.642 72.691C34.4835 72.691 33.384 72.072 32.9128 71.0465C32.2893 69.688 33.0045 68.1308 34.5114 67.5682L78.4613 51.1546C79.9674 50.5916 81.6947 51.2369 82.3191 52.5954C82.943 53.9539 82.2274 55.5111 80.7209 56.0737L36.7702 72.4873C36.4009 72.6254 36.0183 72.691 35.642 72.691Z" fill="#ED2E2E"/>
<path d="M141.023 72.691C140.647 72.691 140.264 72.6257 139.895 72.488L95.9471 56.0744C94.4406 55.5118 93.725 53.9545 94.3493 52.5961C94.9736 51.2376 96.7018 50.593 98.2067 51.1553L142.153 67.5689C143.66 68.1311 144.376 69.6884 143.752 71.0472C143.281 72.0716 142.181 72.691 141.023 72.691Z" fill="#ED2E2E"/>
<path d="M79.5903 49.7457C79.214 49.7457 78.8314 49.6804 78.4621 49.5423L34.5106 33.1288C33.0046 32.5658 32.2889 31.0085 32.9132 29.6501C33.5375 28.2916 35.2661 27.6474 36.771 28.2096L80.7205 44.6229C82.227 45.1855 82.9426 46.7427 82.3191 48.1012C81.8483 49.127 80.7488 49.7457 79.5903 49.7457Z" fill="#ED2E2E"/>
<path d="M139.347 114.044H37.3177C36.2273 114.044 35.2263 113.502 34.713 112.635C34.1997 111.767 34.2587 110.715 34.8657 109.899L76.7301 53.5978C77.6386 52.3767 79.4726 52.0505 80.8264 52.8694C82.1805 53.6883 82.5423 55.3421 81.6345 56.5632L42.852 108.719H139.347C140.978 108.719 142.299 109.911 142.299 111.381C142.299 112.852 140.978 114.044 139.347 114.044Z" fill="#666666"/>
<path d="M128.178 99.0181C127.226 99.0181 126.293 98.6042 125.723 97.8382L95.0303 56.5593C94.1222 55.3382 94.484 53.6844 95.8385 52.8655C97.1926 52.0466 99.0266 52.3732 99.9348 53.5943L130.627 94.8731C131.536 96.0942 131.174 97.748 129.819 98.5669C129.315 98.8722 128.743 99.0181 128.178 99.0181Z" fill="#666666"/>
<path d="M157.099 95.4241H122.065C119.749 95.4241 117.871 97.1176 117.871 99.2066V111.382H161.294V99.2066C161.294 97.1173 159.416 95.4241 157.099 95.4241Z" fill="#ED2E2E"/>
<path d="M135.187 95.4241H122.066C119.749 95.4241 117.871 97.1176 117.871 99.2066V111.382H130.992V99.2066C130.992 97.1173 132.87 95.4241 135.187 95.4241Z" fill="#D82525"/>
<path d="M30.4852 86.6788V111.383H8.63782V86.6788C8.63782 85.031 10.1191 83.6953 11.9464 83.6953H27.1766C29.0039 83.6953 30.4852 85.031 30.4852 86.6788Z" fill="#B3B3B3"/>
<path d="M30.4852 89.4315V94.756H20.4472C18.8175 94.756 17.4949 93.5669 17.4949 92.0938C17.4949 90.6242 18.8175 89.4315 20.4472 89.4315H30.4852Z" fill="#666666"/>
<path d="M30.4852 97.9507V103.275H20.4472C18.8175 103.275 17.4949 102.082 17.4949 100.613C17.4949 99.1434 18.8175 97.9507 20.4472 97.9507H30.4852Z" fill="#666666"/>
<path d="M152.707 114.044C151.076 114.044 149.755 112.852 149.755 111.381V103.808C149.755 102.338 151.076 101.146 152.707 101.146C154.338 101.146 155.659 102.338 155.659 103.808V111.381C155.659 112.852 154.338 114.044 152.707 114.044Z" fill="#666666"/>
<path d="M88.3328 58.8822C93.559 58.8822 97.7957 55.0618 97.7957 50.3492C97.7957 45.6365 93.559 41.8162 88.3328 41.8162C83.1066 41.8162 78.8699 45.6365 78.8699 50.3492C78.8699 55.0618 83.1066 58.8822 88.3328 58.8822Z" fill="#3B9DFF"/>
<path d="M88.3328 61.5504C86.7228 61.5504 85.1136 61.2643 83.5819 60.6921C80.5181 59.5477 78.1315 57.3959 76.8627 54.6332C75.5936 51.8705 75.5936 48.8278 76.8631 46.0647C78.1323 43.302 80.5181 41.1502 83.5819 40.0058C86.6453 38.8614 90.0204 38.8614 93.0841 40.0058C96.1479 41.1502 98.5346 43.302 99.8033 46.0647C101.072 48.8274 101.072 51.8702 99.8029 54.6332C98.5338 57.3959 96.1479 59.5477 93.0841 60.6921C91.5525 61.2643 89.9424 61.5504 88.3328 61.5504ZM88.3328 44.4748C87.4885 44.4748 86.6449 44.625 85.8414 44.9249C84.235 45.5252 82.9832 46.6533 82.3179 48.1022C81.6526 49.5512 81.6526 51.1468 82.3179 52.5954C82.9832 54.0443 84.2346 55.1724 85.8414 55.7727C87.4475 56.3729 89.2174 56.3729 90.8242 55.7727C92.4307 55.1728 93.6825 54.0443 94.3478 52.5954C95.013 51.1464 95.013 49.5508 94.3478 48.1022C93.6829 46.6536 92.4311 45.5252 90.8242 44.9249C90.0216 44.625 89.1772 44.4748 88.3328 44.4748Z" fill="#FFD039"/>
<path d="M173 117.826H0C0 116.254 0.444821 114.777 1.22818 113.489C1.68875 112.729 2.26741 112.037 2.94054 111.43C4.75526 109.79 7.26672 108.778 10.038 108.778H162.962C166.761 108.778 170.067 110.681 171.772 113.489C172.555 114.777 173 116.254 173 117.826Z" fill="#0FBC30"/>
<path d="M173 117.826H0C0 116.254 0.444821 114.777 1.22818 113.489H171.772C172.555 114.777 173 116.254 173 117.826Z" fill="#07A521"/>
</svg>
