<svg width="155" height="104" viewBox="0 0 155 104" fill="none" xmlns="http://www.w3.org/2000/svg">
<g clip-path="url(#clip0_139_44)">
<path d="M18.0832 100.506H2.58323C1.15735 100.506 0 101.283 0 102.24C0 103.196 1.15735 103.973 2.58323 103.973H18.0832C19.5091 103.973 20.6665 103.196 20.6665 102.24C20.6665 101.283 19.5094 100.506 18.0832 100.506Z" fill="white"/>
<path d="M59.161 34.9101C57.9546 34.397 56.3607 34.6345 55.5932 35.4423L39.1529 52.7755C38.7085 53.2454 38.6259 53.8312 38.9335 54.3494C39.2407 54.8659 39.9022 55.2525 40.7057 55.3875C41.1422 55.4602 51.6462 57.1728 77.5 57.1728C82.0338 57.1728 86.4152 57.119 90.5176 57.0115C91.941 56.9752 93.0518 56.1692 92.9976 55.2141C92.9434 54.2573 91.7991 53.4721 90.316 53.5482C86.2808 53.6522 81.9665 53.7059 77.5 53.7059C60.7058 53.7059 50.5118 52.9588 45.5779 52.4597L59.9541 37.3035C60.7188 36.4961 60.3646 35.4248 59.161 34.9101Z" fill="white"/>
<path d="M152.417 100.506H147.25C145.824 100.506 144.667 101.283 144.667 102.24C144.667 103.196 145.824 103.973 147.25 103.973H152.417C153.843 103.973 155 103.196 155 102.24C155 101.283 153.843 100.506 152.417 100.506Z" fill="white"/>
<path d="M136.917 100.506H116.25V88.2932C136.418 87.5739 152.342 84.9705 153.034 84.8559C153.861 84.719 154.532 84.3203 154.832 83.7864C155.134 83.2526 155.023 82.6546 154.54 82.1866L133.243 61.5445C139.536 61.0921 142.538 60.6154 142.688 60.5912C143.499 60.4612 144.166 60.0746 144.478 59.5565C144.791 59.0365 144.711 58.4488 144.264 57.9758L124.693 37.3405C129.805 36.8587 132.391 36.3212 132.523 36.2936C133.287 36.1323 133.897 35.7441 134.174 35.2414C134.45 34.737 134.365 34.1754 133.941 33.7212L108.108 5.98754C107.637 5.48318 106.813 5.17463 105.925 5.1728H105.917C105.033 5.1728 104.209 5.47607 103.736 5.97698L97.1749 12.9104C96.4102 13.7181 96.7668 14.7894 97.9705 15.3024C99.1769 15.8172 100.774 15.5763 101.535 14.7686L105.899 10.1579L127.643 33.5006C125.84 33.7328 123.311 34.0015 120.05 34.2199C119.156 34.2788 118.376 34.6446 117.984 35.1872C117.591 35.7279 117.645 36.3675 118.128 36.8753L137.837 57.6562C135.685 57.8746 132.554 58.1415 128.397 58.3686C127.477 58.4188 126.666 58.795 126.271 59.3548C125.878 59.9146 125.958 60.5733 126.483 61.083L148.103 82.0355C141.924 82.8919 128.684 84.4951 113.561 84.9077C112.177 84.9459 111.084 85.7084 111.084 86.6393V100.506H100.75V87.5063C100.75 86.5496 99.5928 85.773 98.167 85.773C96.7411 85.773 95.5837 86.5496 95.5837 87.5063V100.506H87.8337V83.0515C113.905 82.4501 124.476 79.7132 124.961 79.5832C125.69 79.3855 126.248 78.9783 126.473 78.4721C126.7 77.9677 126.573 77.4199 126.124 76.9866L104.827 56.3445C111.12 55.8921 114.122 55.4154 114.272 55.3912C115.083 55.2612 115.749 54.8747 116.062 54.3565C116.375 53.8365 116.294 53.2488 115.848 52.7758L96.2758 32.1401C101.388 31.6583 103.977 31.1208 104.106 31.0932C104.871 30.9319 105.48 30.5437 105.757 30.041C106.033 29.5366 105.948 28.975 105.524 28.5208L79.6908 0.787539C78.7453 -0.226461 76.2551 -0.226461 75.3093 0.787539L49.4761 28.521C49.0577 28.9717 48.9672 29.5263 49.2357 30.0256C49.5045 30.5265 50.0985 30.9165 50.8502 31.0846C51.1811 31.159 59.2078 32.9063 77.5002 32.9063C79.3551 32.9063 81.1039 32.889 82.7469 32.8543C84.1728 32.8248 85.2941 32.0257 85.2475 31.069C85.2036 30.1105 84.0126 29.3183 82.5867 29.3894C80.9928 29.4223 79.2981 29.4395 77.5002 29.4395C66.5881 29.4395 59.5202 28.7914 55.7666 28.3094L77.5002 4.97699L99.2259 28.3008C97.4229 28.533 94.8938 28.8017 91.6337 29.0201C90.7424 29.079 89.9595 29.4448 89.5669 29.9874C89.1742 30.5281 89.2284 31.1677 89.7116 31.6757L109.42 52.4566C107.268 52.675 104.137 52.9419 99.9803 53.169C99.0606 53.2192 98.2496 53.5954 97.8542 54.1552C97.4616 54.715 97.5415 55.3737 98.0662 55.8834L119.857 77.0023C114.264 77.9746 100.996 79.7063 77.5002 79.7063C54.0023 79.7063 40.7316 77.9746 35.1413 77.0023L51.0082 61.6259C51.822 60.839 51.5274 59.7592 50.3546 59.2148C49.1791 58.6688 47.5725 58.8665 46.7612 59.6534L28.8768 76.9866C28.4273 77.4199 28.3007 77.9677 28.5253 78.4721C28.7527 78.9783 29.3106 79.3855 30.039 79.5832C30.5246 79.7132 41.0958 82.4501 67.1667 83.0515V100.506H59.4167V87.5063C59.4167 86.5496 58.2593 85.773 56.8334 85.773C55.4076 85.773 54.2502 86.5496 54.2502 87.5063V100.506H43.917V86.6395C43.917 85.7088 42.8241 84.9461 41.437 84.9079C26.3348 84.4954 13.0798 82.8921 6.8977 82.0357L28.5175 61.0832C29.0418 60.5735 29.122 59.915 28.7294 59.355C28.334 58.7952 27.523 58.419 26.6033 58.3688C22.4467 58.1417 19.3183 57.8748 17.1637 57.6564L36.872 36.8755C37.3552 36.3677 37.4094 35.7281 37.0167 35.1874C36.6241 34.6448 35.8412 34.2792 34.95 34.2201C31.6898 34.0017 29.1581 33.733 27.3577 33.5008L49.1016 10.1581L53.4649 14.7688C54.2296 15.5767 55.8208 15.8176 57.0299 15.3026C58.2339 14.7896 58.5902 13.7185 57.8255 12.9106L51.2637 5.97738C50.7884 5.47465 49.8584 5.19921 49.0756 5.17321C48.187 5.17504 47.3627 5.48338 46.8925 5.98795L21.0596 33.721C20.6361 34.1752 20.5507 34.7368 20.8271 35.2412C21.1035 35.7439 21.7132 36.1321 22.4779 36.2934C22.6072 36.321 25.1956 36.8585 30.3081 37.3403L10.7367 57.9756C10.2898 58.4488 10.2096 59.0363 10.5223 59.5563C10.8351 60.0744 11.5014 60.461 12.3127 60.591C12.4626 60.6154 15.4645 61.0919 21.7574 61.5443L0.460055 82.1866C-0.0231089 82.6546 -0.134212 83.2526 0.168219 83.7864C0.467926 84.3203 1.13939 84.719 1.96616 84.8559C2.65851 84.9703 18.582 87.5737 38.7502 88.2932V100.506H28.417C26.9911 100.506 25.8337 101.283 25.8337 102.24C25.8337 103.196 26.9911 103.973 28.417 103.973H136.917C138.343 103.973 139.5 103.196 139.5 102.24C139.5 101.283 138.343 100.506 136.917 100.506ZM82.667 100.506H72.3337V83.1401C74.0079 83.1592 75.7101 83.173 77.5005 83.173C79.2909 83.173 80.9932 83.1592 82.6673 83.1401V100.506H82.667Z" fill="white"/>
</g>
<defs>
<clipPath id="clip0_139_44">
<rect width="155" height="104" fill="white"/>
</clipPath>
</defs>
</svg>
