<svg width="71" height="74" viewBox="0 0 71 74" fill="none" xmlns="http://www.w3.org/2000/svg">
<ellipse cx="35.5" cy="36.5301" rx="35" ry="36.5301" fill="#32CD32" fill-opacity="0.2"/>
<path d="M39.75 20.8743H46.5V28.7022H39.75V20.8743Z" fill="#32CD32"/>
<path d="M24 20.8743H30.75V28.7022H24V20.8743Z" fill="#32CD32"/>
<ellipse cx="35.625" cy="42.7924" rx="4.125" ry="3.91393" fill="#32CD32"/>
<path fill-rule="evenodd" clip-rule="evenodd" d="M26.25 43.1837C26.25 38.2121 30.2794 34.1817 35.25 34.1817C40.2206 34.1817 44.25 38.2121 44.25 43.1838C44.25 48.1554 40.2206 52.1858 35.25 52.1858C30.2794 52.1858 26.25 48.1554 26.25 43.1837ZM29.3931 43.1837C29.3931 46.414 32.0205 49.0419 35.25 49.0419C38.4795 49.0419 41.1069 46.4139 41.1069 43.1837C41.1069 39.9535 38.4795 37.3255 35.25 37.3255C32.0205 37.3255 29.3931 39.9535 29.3931 43.1837Z" fill="#32CD32"/>
<path d="M31.3477 32.7628C32.1222 32.4068 32.9259 32.1583 33.75 32.0178L32.1394 30.2678H25.5L29.1021 34.1817C29.791 33.6086 30.5421 33.1331 31.3477 32.7628Z" fill="#32CD32"/>
<path d="M36.75 32.0178C37.5741 32.1583 38.3778 32.4068 39.1523 32.7628C39.9579 33.133 40.709 33.6085 41.3979 34.1817L45 30.2678H38.3606C37.9268 30.7391 37.3201 31.3983 36.75 32.0178V32.0178Z" fill="#32CD32"/>
</svg>
