<svg width="70" height="73" viewBox="0 0 70 73" fill="none" xmlns="http://www.w3.org/2000/svg">
<ellipse cx="35" cy="36.3388" rx="35" ry="36.3388" fill="#32CD32" fill-opacity="0.2"/>
<path d="M51.2621 32.0386H43.8782C41.6847 32.0386 39.9066 33.8847 39.9066 36.1621V47.7834C39.9066 50.0608 41.6847 51.907 43.8782 51.907H52.1644L53.5631 34.637C53.6764 33.2386 52.6137 32.0386 51.2621 32.0386Z" fill="#32CD32"/>
<path d="M35.935 20.7707H34.0918L33.3796 29.9356C33.1773 32.5389 31.0833 34.5446 28.5677 34.5446H27.1838V49.4009H31.8753C31.8753 49.4364 31.8753 49.4718 31.8752 49.5069C31.8738 50.8321 32.908 51.9069 34.1844 51.9069H39.2349C38.3189 50.7967 37.7637 49.3565 37.7637 47.7834V36.1621C37.7637 34.2347 38.5963 32.5064 39.9066 31.3412V24.8941C39.9066 22.6168 38.1284 20.7707 35.935 20.7707V20.7707Z" fill="#32CD32"/>
<path d="M17 33.0551H25.0409V50.8903H17V33.0551Z" fill="#32CD32"/>
</svg>
