<svg width="81" height="72" viewBox="0 0 81 72" fill="none" xmlns="http://www.w3.org/2000/svg">
<ellipse cx="40.5" cy="35.5738" rx="39.9395" ry="35.5738" fill="#32CD32" fill-opacity="0.2"/>
<path fill-rule="evenodd" clip-rule="evenodd" d="M34.1384 40.7611C34.1384 37.6609 36.9701 35.1386 40.451 35.1386C43.9318 35.1386 46.7636 37.6609 46.7636 40.7611C46.7636 43.8614 43.9317 46.3837 40.451 46.3837C36.9702 46.3837 34.1384 43.8615 34.1384 40.7611ZM36.0753 41.433L39.1987 44.215L44.8266 39.2023L43.4083 37.939L39.1987 41.6884L37.4936 40.1697L36.0753 41.433Z" fill="#32CD32"/>
<path d="M46.8639 23.8072H44.3574C44.3573 21.8856 42.6084 20.3279 40.451 20.3279C38.2936 20.3279 36.5446 21.8856 36.5446 23.8072H34.0381V28.2674H46.8638V23.8072H46.8639Z" fill="#32CD32"/>
<path fill-rule="evenodd" clip-rule="evenodd" d="M48.8698 30.054V23.8072H52.9082V50.8197H27.9937V23.8072H32.0322V30.054H48.8698ZM32.1325 40.7612C32.1325 44.8466 35.8641 48.1704 40.451 48.1704C45.0378 48.1704 48.7695 44.8466 48.7695 40.7612C48.7695 36.6758 45.0378 33.352 40.451 33.352C35.8642 33.352 32.1325 36.6758 32.1325 40.7612Z" fill="#32CD32"/>
</svg>
