<svg width="50" height="50" viewBox="0 0 50 50" fill="none" xmlns="http://www.w3.org/2000/svg">
<g clip-path="url(#clip0_76_281)">
<circle opacity="0.2" cx="25" cy="25" r="24" stroke="#32CD32" stroke-width="2"/>
<path d="M32.7 16.2H30.5V15.1C30.5 14.8083 30.3841 14.5285 30.1778 14.3222C29.9715 14.1159 29.6917 14 29.4 14C29.1083 14 28.8285 14.1159 28.6222 14.3222C28.4159 14.5285 28.3 14.8083 28.3 15.1V16.2H21.7V15.1C21.7 14.8083 21.5841 14.5285 21.3778 14.3222C21.1715 14.1159 20.8917 14 20.6 14C20.3083 14 20.0285 14.1159 19.8222 14.3222C19.6159 14.5285 19.5 14.8083 19.5 15.1V16.2H17.3C16.4248 16.2 15.5854 16.5477 14.9665 17.1665C14.3477 17.7854 14 18.6248 14 19.5V32.7C14 33.5752 14.3477 34.4146 14.9665 35.0335C15.5854 35.6523 16.4248 36 17.3 36H32.7C33.5752 36 34.4146 35.6523 35.0335 35.0335C35.6523 34.4146 36 33.5752 36 32.7V19.5C36 18.6248 35.6523 17.7854 35.0335 17.1665C34.4146 16.5477 33.5752 16.2 32.7 16.2V16.2ZM33.8 32.7C33.8 32.9917 33.6841 33.2715 33.4778 33.4778C33.2715 33.6841 32.9917 33.8 32.7 33.8H17.3C17.0083 33.8 16.7285 33.6841 16.5222 33.4778C16.3159 33.2715 16.2 32.9917 16.2 32.7V25H33.8V32.7ZM33.8 22.8H16.2V19.5C16.2 19.2083 16.3159 18.9285 16.5222 18.7222C16.7285 18.5159 17.0083 18.4 17.3 18.4H19.5V19.5C19.5 19.7917 19.6159 20.0715 19.8222 20.2778C20.0285 20.4841 20.3083 20.6 20.6 20.6C20.8917 20.6 21.1715 20.4841 21.3778 20.2778C21.5841 20.0715 21.7 19.7917 21.7 19.5V18.4H28.3V19.5C28.3 19.7917 28.4159 20.0715 28.6222 20.2778C28.8285 20.4841 29.1083 20.6 29.4 20.6C29.6917 20.6 29.9715 20.4841 30.1778 20.2778C30.3841 20.0715 30.5 19.7917 30.5 19.5V18.4H32.7C32.9917 18.4 33.2715 18.5159 33.4778 18.7222C33.6841 18.9285 33.8 19.2083 33.8 19.5V22.8Z" fill="#32CD32"/>
</g>
<defs>
<clipPath id="clip0_76_281">
<rect width="50" height="50" fill="white"/>
</clipPath>
</defs>
</svg>
