<svg width="50" height="50" viewBox="0 0 50 50" fill="none" xmlns="http://www.w3.org/2000/svg">
<g clip-path="url(#clip0_76_276)">
<circle opacity="0.2" cx="25" cy="25" r="24" stroke="#32CD32" stroke-width="2"/>
<path d="M24.8 14C22.4661 14 20.2278 14.9271 18.5775 16.5775C16.9271 18.2278 16 20.4661 16 22.8C16 28.74 23.755 35.4499 24.085 35.7359C24.2842 35.9064 24.5378 36 24.8 36C25.0622 36 25.3157 35.9064 25.515 35.7359C25.9 35.4499 33.5999 28.74 33.5999 22.8C33.5999 20.4661 32.6728 18.2278 31.0225 16.5775C29.3722 14.9271 27.1339 14 24.8 14V14ZM24.8 33.4149C22.457 31.2149 18.2 26.474 18.2 22.8C18.2 21.0495 18.8953 19.3708 20.1331 18.1331C21.3708 16.8953 23.0495 16.2 24.8 16.2C26.5504 16.2 28.2291 16.8953 29.4669 18.1331C30.7046 19.3708 31.4 21.0495 31.4 22.8C31.4 26.474 27.143 31.2259 24.8 33.4149ZM24.8 18.4C23.9297 18.4 23.079 18.658 22.3555 19.1415C21.6319 19.625 21.0679 20.3122 20.7349 21.1162C20.4019 21.9202 20.3148 22.8049 20.4845 23.6584C20.6543 24.5119 21.0734 25.2959 21.6887 25.9112C22.3041 26.5266 23.0881 26.9456 23.9416 27.1154C24.7951 27.2852 25.6798 27.1981 26.4838 26.865C27.2878 26.532 27.9749 25.968 28.4584 25.2445C28.9419 24.5209 29.2 23.6702 29.2 22.8C29.2 21.633 28.7364 20.5139 27.9112 19.6887C27.0861 18.8636 25.9669 18.4 24.8 18.4ZM24.8 25C24.3649 25 23.9395 24.8709 23.5777 24.6292C23.2159 24.3875 22.934 24.0439 22.7674 23.6419C22.6009 23.2399 22.5574 22.7975 22.6423 22.3708C22.7271 21.944 22.9367 21.552 23.2443 21.2443C23.552 20.9367 23.944 20.7271 24.3708 20.6423C24.7975 20.5574 25.2399 20.6009 25.6419 20.7674C26.0439 20.934 26.3875 21.2159 26.6292 21.5777C26.8709 21.9395 27 22.3649 27 22.8C27 23.3834 26.7682 23.943 26.3556 24.3556C25.943 24.7682 25.3834 25 24.8 25Z" fill="#32CD32"/>
</g>
<defs>
<clipPath id="clip0_76_276">
<rect width="50" height="50" fill="white"/>
</clipPath>
</defs>
</svg>
