<svg width="50" height="50" viewBox="0 0 50 50" fill="none" xmlns="http://www.w3.org/2000/svg">
<g clip-path="url(#clip0_76_271)">
<circle opacity="0.2" cx="25" cy="25" r="24" stroke="#32CD32" stroke-width="2"/>
<path d="M31.4077 26C31.1877 26 30.9577 25.93 30.7377 25.88C30.2926 25.7805 29.8549 25.6501 29.4277 25.49C28.9638 25.3212 28.4539 25.33 27.996 25.5146C27.5382 25.6992 27.1648 26.0466 26.9477 26.49L26.7277 26.95C25.7566 26.3992 24.8594 25.7271 24.0577 24.95C23.2806 24.1484 22.6085 23.2512 22.0577 22.28L22.5177 22.07C22.9611 21.8529 23.3085 21.4795 23.4931 21.0217C23.6777 20.5639 23.6865 20.0539 23.5177 19.59C23.3589 19.159 23.2286 18.7181 23.1277 18.27C23.0777 18.05 23.0377 17.82 23.0077 17.6C22.8863 16.8956 22.5174 16.2577 21.9674 15.8012C21.4173 15.3447 20.7224 15.0996 20.0077 15.11H16.9977C16.575 15.1094 16.1569 15.1982 15.7708 15.3706C15.3848 15.5429 15.0396 15.7949 14.7577 16.11C14.4701 16.4337 14.2558 16.8158 14.1298 17.23C14.0038 17.6443 13.969 18.081 14.0277 18.51C14.5713 22.6721 16.4729 26.5387 19.4377 29.51C22.4091 32.4748 26.2756 34.3764 30.4377 34.92C30.5675 34.9299 30.6979 34.9299 30.8277 34.92C31.5651 34.9211 32.2771 34.6505 32.8277 34.16C33.1428 33.8782 33.3948 33.5329 33.5671 33.1469C33.7395 32.7609 33.8283 32.3428 33.8277 31.92V28.92C33.8223 28.229 33.5786 27.5611 33.1377 27.0291C32.6967 26.4971 32.0857 26.1336 31.4077 26ZM31.8977 32C31.8974 32.1395 31.8679 32.2775 31.811 32.4049C31.7542 32.5324 31.6713 32.6465 31.5677 32.74C31.4581 32.8399 31.3277 32.9141 31.1859 32.9573C31.0441 33.0006 30.8944 33.0117 30.7477 32.99C27.016 32.5026 23.548 30.802 20.8777 28.15C18.2052 25.4775 16.4898 21.9974 15.9977 18.25C15.976 18.1033 15.9872 17.9537 16.0304 17.8119C16.0736 17.67 16.1479 17.5396 16.2477 17.43C16.3424 17.3252 16.4581 17.2415 16.5874 17.1847C16.7167 17.1278 16.8565 17.0989 16.9977 17.1H19.9977C20.2289 17.0944 20.4549 17.169 20.6372 17.3112C20.8195 17.4534 20.9469 17.6544 20.9977 17.88C20.9977 18.15 21.0877 18.43 21.1477 18.7C21.2633 19.2239 21.417 19.7386 21.6077 20.24L20.2077 20.9C19.9671 21.0105 19.7801 21.2119 19.6877 21.46C19.5877 21.7035 19.5877 21.9765 19.6877 22.22C21.1269 25.3028 23.605 27.7808 26.6877 29.22C26.9312 29.32 27.2043 29.32 27.4477 29.22C27.6959 29.1276 27.8973 28.9406 28.0077 28.7L28.6377 27.3C29.1536 27.4881 29.6815 27.6418 30.2177 27.76C30.4777 27.82 30.7577 27.87 31.0277 27.91C31.2533 27.9608 31.4543 28.0882 31.5965 28.2705C31.7387 28.4529 31.8134 28.6788 31.8077 28.91L31.8977 32ZM25.9977 15C25.7677 15 25.5277 15 25.2977 15C25.0325 15.0225 24.7871 15.1495 24.6155 15.353C24.4439 15.5565 24.3602 15.8198 24.3827 16.085C24.4053 16.3502 24.5323 16.5956 24.7357 16.7672C24.9392 16.9388 25.2025 17.0225 25.4677 17H25.9977C27.589 17 29.1152 17.6321 30.2404 18.7574C31.3656 19.8826 31.9977 21.4087 31.9977 23C31.9977 23.18 31.9977 23.35 31.9977 23.53C31.9756 23.7938 32.0589 24.0556 32.2295 24.2581C32.4001 24.4606 32.644 24.5871 32.9077 24.61H32.9877C33.2381 24.611 33.4797 24.5181 33.6648 24.3496C33.85 24.1811 33.9652 23.9493 33.9877 23.7C33.9877 23.47 33.9877 23.23 33.9877 23C33.9877 20.88 33.1462 18.8467 31.6481 17.3467C30.15 15.8467 28.1177 15.0027 25.9977 15V15ZM27.9977 23C27.9977 23.2652 28.1031 23.5196 28.2906 23.7071C28.4782 23.8946 28.7325 24 28.9977 24C29.2629 24 29.5173 23.8946 29.7048 23.7071C29.8924 23.5196 29.9977 23.2652 29.9977 23C29.9977 21.9391 29.5763 20.9217 28.8262 20.1716C28.076 19.4214 27.0586 19 25.9977 19C25.7325 19 25.4782 19.1054 25.2906 19.2929C25.1031 19.4804 24.9977 19.7348 24.9977 20C24.9977 20.2652 25.1031 20.5196 25.2906 20.7071C25.4782 20.8946 25.7325 21 25.9977 21C26.5282 21 27.0369 21.2107 27.4119 21.5858C27.787 21.9609 27.9977 22.4696 27.9977 23Z" fill="#32CD32"/>
</g>
<defs>
<clipPath id="clip0_76_271">
<rect width="50" height="50" fill="white"/>
</clipPath>
</defs>
</svg>
