<?xml version="1.0" standalone="no"?>
<!DOCTYPE svg PUBLIC "-//W3C//DTD SVG 20010904//EN"
 "http://www.w3.org/TR/2001/REC-SVG-20010904/DTD/svg10.dtd">
<svg version="1.0" xmlns="http://www.w3.org/2000/svg"
 width="34px" height="34px" viewBox="0 0 64.000000 64.000000"
 preserveAspectRatio="xMidYMid meet">

<g transform="translate(0.000000,64.000000) scale(0.100000,-0.100000)"
fill="#fff" stroke="none">
<path d="M255 601 c-84 -22 -154 -80 -196 -161 -34 -66 -33 -176 3 -245 31
-60 77 -105 138 -136 64 -32 176 -32 240 0 61 31 107 76 138 136 37 71 37 179
0 250 -49 94 -135 152 -235 160 -32 2 -71 1 -88 -4z m165 -42 c210 -95 212
-377 5 -475 -200 -95 -417 102 -353 320 15 51 108 147 158 163 58 18 140 15
190 -8z"/>
<path d="M279 469 c-18 -34 3 -69 41 -69 38 0 59 35 41 69 -16 29 -66 29 -82
0z m58 -15 c8 -21 -13 -42 -28 -27 -13 13 -5 43 11 43 6 0 13 -7 17 -16z"/>
<path d="M287 332 c-25 -28 -24 -163 1 -185 24 -22 45 -21 65 1 25 28 24 163
-1 185 -24 22 -45 21 -65 -1z m48 -93 c0 -59 -3 -74 -15 -74 -11 0 -16 15 -18
64 -3 71 2 95 21 88 8 -2 12 -27 12 -78z"/>
</g>
</svg>
