<?xml version="1.0" standalone="no"?>
<!DOCTYPE svg PUBLIC "-//W3C//DTD SVG 20010904//EN"
 "http://www.w3.org/TR/2001/REC-SVG-20010904/DTD/svg10.dtd">
<svg version="1.0" xmlns="http://www.w3.org/2000/svg"
 width="885.000000pt" height="393.000000pt" viewBox="0 0 885.000000 393.000000"
 preserveAspectRatio="xMidYMid meet">

<g transform="translate(0.000000,393.000000) scale(0.100000,-0.100000)"
fill="#000000" stroke="none">
<path d="M5 1965 c0 -1084 1 -1528 2 -988 2 540 2 1426 0 1970 -1 543 -2 102
-2 -982z"/>
<path d="M2415 3901 c-27 -15 -174 -100 -325 -187 -151 -88 -449 -261 -662
-384 l-388 -224 0 -132 0 -132 -51 -22 c-90 -38 -214 -100 -203 -100 6 0 65
11 130 24 66 13 188 36 272 51 l152 29 0 55 0 56 73 42 c39 23 283 164 542
313 259 150 493 285 520 300 28 15 160 91 294 169 134 78 247 141 250 141 3 0
15 7 25 15 18 13 -14 15 -280 15 l-299 0 -50 -29z"/>
<path d="M4150 3918 c-1 -7 0 -110 0 -228 l1 -216 -128 -16 c-104 -14 -148
-16 -233 -7 -57 5 -106 11 -108 13 -2 2 -3 92 -2 200 0 108 -3 196 -8 196 -4
0 -16 -6 -27 -14 -11 -7 -42 -25 -70 -40 -27 -16 -111 -63 -187 -107 -75 -43
-142 -79 -148 -79 -5 0 -10 -3 -10 -8 0 -4 -12 -13 -27 -19 -16 -7 -43 -22
-60 -33 l-33 -20 0 -159 0 -158 -31 -7 c-17 -3 -41 -6 -53 -6 -16 0 -24 -10
-34 -40 -6 -22 -12 -47 -12 -56 0 -14 -7 -15 -47 -9 -27 3 -86 17 -133 30 -47
13 -97 26 -112 29 l-27 6 -3 154 -3 154 -62 -37 c-35 -21 -60 -41 -55 -46 4
-5 1 -5 -6 -1 -7 5 -21 2 -30 -6 -9 -8 -95 -63 -190 -122 l-173 -108 3 -204
c2 -112 2 -204 0 -204 -1 0 -38 21 -82 46 -71 42 -83 45 -122 39 -43 -7 -333
-57 -548 -95 -237 -42 -402 -70 -625 -106 -126 -21 -235 -43 -242 -48 -13 -12
-103 -282 -103 -308 0 -22 -18 -23 -70 -2 -35 14 -58 15 -143 8 l-102 -9 -16
-75 c-45 -205 -48 -274 -15 -325 32 -49 100 -45 151 9 25 27 34 49 48 125 10
51 21 121 24 157 7 73 7 73 99 49 32 -8 58 -14 59 -12 1 1 14 47 29 102 15 55
36 127 47 161 l19 60 123 22 c67 12 199 36 292 52 94 16 208 37 255 45 133 24
184 33 350 61 85 14 199 35 254 45 54 10 112 19 129 19 29 0 90 -30 835 -412
146 -75 259 -127 268 -124 8 3 12 2 9 -4 -3 -5 9 -17 27 -26 32 -17 33 -17 19
2 -14 18 -14 18 3 3 16 -14 17 -27 11 -93 -4 -42 -11 -76 -16 -76 -4 0 -51 23
-104 51 -53 28 -98 49 -101 47 -2 -3 3 -85 11 -184 8 -98 15 -186 15 -195 0
-16 89 -63 135 -71 15 -2 22 -14 26 -43 l6 -40 2 50 c1 47 19 192 40 330 5 33
15 94 21 135 11 80 44 269 61 360 6 30 19 78 30 105 10 28 35 136 55 240 20
105 38 192 40 194 1 1 28 -8 58 -22 l55 -26 -14 -48 c-46 -156 -156 -703 -189
-935 -5 -43 4 -48 28 -15 10 14 14 16 10 4 -4 -9 -1 -24 6 -32 7 -9 10 -18 7
-22 -4 -3 -9 2 -13 11 -3 9 -11 16 -16 16 -6 0 -8 -7 -4 -15 3 -8 2 -15 -3
-15 -15 0 -29 -57 -34 -135 -1 -19 -6 -35 -11 -35 -4 0 -6 -18 -4 -39 2 -22 0
-37 -4 -35 -3 2 -9 -22 -13 -53 -3 -32 -12 -101 -20 -153 -8 -52 -17 -145 -21
-206 -6 -103 -5 -113 12 -122 37 -19 280 -82 414 -106 153 -28 354 -50 375
-42 7 2 15 0 18 -7 3 -9 105 -12 413 -12 368 0 427 2 585 23 306 40 663 124
677 160 6 18 -41 454 -74 672 -58 391 -100 615 -182 972 l-39 168 35 20 c19
11 44 22 55 23 24 2 22 7 68 -228 16 -88 38 -178 48 -200 16 -37 23 -67 52
-240 5 -33 14 -82 19 -110 5 -27 23 -149 40 -270 17 -121 34 -236 38 -256 l7
-36 81 34 81 35 15 196 c9 108 15 199 13 200 -2 2 -49 -20 -104 -49 -55 -29
-102 -51 -105 -48 -2 2 -7 36 -11 75 l-7 70 258 130 c143 71 402 203 577 293
301 154 321 163 365 159 26 -3 256 -42 512 -88 256 -45 485 -86 510 -90 205
-33 356 -63 360 -71 4 -5 26 -78 50 -162 23 -83 44 -153 45 -155 2 -2 30 4 63
12 90 24 92 23 92 -28 0 -59 27 -207 46 -256 41 -103 148 -120 190 -32 15 32
15 46 5 117 -18 124 -42 239 -52 251 -6 7 -53 15 -107 19 -76 5 -106 3 -141
-9 -57 -21 -58 -21 -65 12 -4 15 -26 87 -49 161 -31 100 -47 136 -62 142 -11
4 -65 15 -120 24 -55 8 -149 24 -210 35 -60 11 -189 33 -285 50 -96 16 -256
44 -355 61 -99 17 -236 41 -305 53 l-125 21 0 87 0 87 -100 47 c-55 26 -154
74 -220 106 -65 32 -123 58 -127 58 -4 0 -8 -72 -8 -160 l0 -160 -107 -52
c-60 -28 -143 -68 -185 -90 l-78 -39 -2 352 -3 351 -198 114 c-109 63 -203
112 -209 108 -6 -4 -8 -3 -5 3 3 5 -26 28 -66 51 l-72 42 -3 -140 c-1 -77 -5
-140 -9 -140 -8 0 -126 46 -168 65 -16 7 -68 28 -115 45 -47 18 -104 41 -128
51 l-43 20 1 132 c1 72 1 138 1 145 -1 18 -891 18 -891 0z m570 -205 l-5 -68
-82 -3 -83 -3 0 56 c0 30 0 58 0 63 0 4 39 10 87 13 49 3 88 6 88 7 0 1 -2
-28 -5 -65z m-1272 -270 l3 -63 -86 0 -85 0 0 63 0 62 83 0 82 0 3 -62z m2302
-53 l0 -60 -85 0 -85 0 0 60 0 60 85 0 85 0 0 -60z m-1140 25 c233 -20 691
-103 716 -128 6 -7 22 -38 34 -69 13 -32 29 -58 36 -58 7 0 44 11 82 25 38 14
85 25 105 25 41 0 34 21 72 -220 33 -206 54 -307 71 -342 17 -32 61 -58 101
-58 l27 0 -24 -17 c-16 -11 -43 -17 -78 -17 -57 1 -90 19 -123 65 -17 23 -49
182 -80 397 -10 73 -14 82 -33 84 -31 2 -56 -1 -99 -13 -30 -8 -36 -13 -28
-23 6 -7 8 -16 4 -19 -3 -4 -3 -7 1 -7 4 0 17 11 29 23 12 13 36 27 52 31 28
6 -25 -31 -177 -126 -171 -105 -588 -414 -703 -520 l-41 -37 -14 22 c-11 19
-11 20 1 10 11 -9 23 -3 58 28 32 28 39 39 25 39 -14 0 -15 3 -6 12 10 10 15
10 22 -2 7 -12 13 -9 34 13 14 15 30 27 36 27 6 0 8 5 4 12 -4 6 -3 8 4 5 12
-8 97 61 96 78 -1 6 12 19 28 28 16 9 26 12 23 7 -3 -6 -2 -10 2 -10 11 0 83
70 83 80 0 4 15 11 33 15 31 6 31 7 10 17 -25 12 -31 38 -9 38 8 0 16 4 18 9
2 4 14 12 27 16 16 5 21 4 17 -4 -4 -6 -13 -11 -20 -11 -8 0 -19 -7 -27 -16
-10 -13 -10 -17 2 -25 22 -13 32 -11 25 7 -4 11 -2 15 8 11 8 -3 16 -3 18 1 5
11 61 48 83 56 11 3 31 15 45 26 l25 20 -32 0 c-39 0 -52 15 -16 18 14 1 31
10 38 19 11 15 15 15 29 3 15 -11 19 -11 34 3 10 11 12 17 4 17 -7 0 -12 7
-12 15 0 8 5 15 10 15 6 0 10 -4 10 -10 0 -5 7 -10 16 -10 9 0 14 6 12 12 -8
22 54 64 75 52 8 -5 9 -4 2 3 -16 16 -68 26 -59 12 4 -7 3 -9 -3 -6 -5 4 -10
20 -11 37 0 17 3 28 9 25 5 -3 6 1 3 9 -7 17 -44 22 -44 6 0 -6 -10 -6 -27 0
-25 9 -26 9 -10 -4 28 -22 19 -60 -15 -64 -22 -3 -28 -9 -28 -28 0 -19 -5 -24
-25 -24 -20 0 -25 -5 -25 -25 0 -28 -50 -69 -58 -47 -2 6 -15 12 -28 12 -19 0
-24 -5 -24 -25 0 -21 -5 -25 -30 -25 -27 0 -30 -3 -30 -30 0 -25 -4 -30 -25
-30 -20 0 -25 -5 -25 -24 0 -13 5 -26 12 -28 6 -2 -19 -2 -55 0 -67 4 -67 4
-67 -22 0 -14 -4 -26 -10 -26 -5 0 -10 -6 -10 -14 0 -9 -7 -13 -20 -11 -14 3
-20 -2 -20 -16 0 -17 -8 -19 -95 -19 -95 0 -95 0 -95 25 0 23 4 25 40 25 38 0
40 2 40 30 0 27 3 30 30 30 25 0 30 4 30 25 0 20 5 25 25 25 23 0 25 4 25 40
0 38 2 40 30 40 17 0 30 -4 30 -10 0 -5 11 -10 25 -10 24 0 25 3 25 55 0 43 3
55 16 55 11 0 15 8 14 28 -3 43 -1 54 10 47 6 -3 10 -2 10 4 0 6 7 8 15 5 9
-4 15 0 15 10 0 12 10 16 45 16 41 0 45 2 45 25 0 14 0 28 1 32 0 4 -15 12
-33 16 -18 5 -37 13 -43 17 -31 25 -301 50 -546 50 -297 0 -538 -29 -821 -100
-85 -22 -86 -23 -93 -57 -3 -19 -12 -36 -18 -39 -7 -2 -52 9 -100 25 -62 21
-89 27 -91 18 -2 -7 -21 -118 -42 -247 -20 -129 -44 -245 -51 -257 -24 -36
-97 -66 -144 -59 -39 6 -79 25 -79 37 0 3 11 4 24 2 35 -7 86 24 101 61 8 18
19 60 24 92 56 333 71 422 76 442 7 30 51 29 143 -3 39 -14 78 -25 85 -25 7 0
24 26 37 58 12 31 28 62 34 69 24 26 492 110 711 128 205 17 217 17 405 0z
m355 -218 c11 -2 5 -3 -13 -1 -18 1 -30 -1 -27 -5 9 -16 -36 -62 -55 -56 -20
6 -36 -10 -20 -20 13 -8 -5 -26 -42 -42 -26 -12 -38 -8 -38 10 0 5 7 6 16 3 8
-3 13 -2 10 2 -6 9 47 62 104 105 19 14 37 22 40 18 3 -5 14 -11 25 -14z m62
-13 c-3 -3 -12 -4 -19 -1 -8 3 -5 6 6 6 11 1 17 -2 13 -5z m388 -114 c3 -5 1
-10 -4 -10 -6 0 -11 5 -11 10 0 6 2 10 4 10 3 0 8 -4 11 -10z m-655 -31 c0 -5
-4 -8 -9 -4 -5 3 -12 1 -15 -4 -4 -5 2 -11 11 -14 17 -4 17 -4 0 -12 -26 -11
-44 9 -27 30 14 17 40 20 40 4z m-2342 -61 l-3 -63 -82 -3 -83 -3 0 66 0 65
85 0 86 0 -3 -62z m442 -3 l0 -66 -82 3 -83 3 -3 49 c-5 75 -3 76 88 76 l80 0
0 -65z m1850 9 c0 -16 -27 -43 -42 -44 -14 0 -9 23 9 42 20 22 33 23 33 2z
m1920 -64 l0 -60 -85 0 -85 0 0 60 0 60 85 0 85 0 0 -60z m-2001 -46 c-14 -13
-17 -13 -28 0 -10 12 -9 14 8 9 13 -3 21 -1 21 8 0 7 3 9 7 5 4 -3 0 -13 -8
-22z m-38 -22 c-6 -2 -11 -10 -11 -18 0 -8 -5 -14 -11 -14 -6 0 -8 10 -5 23 3
12 3 16 0 9 -3 -7 -15 -17 -27 -23 -18 -9 -16 -6 7 20 24 25 32 28 44 19 9 -8
10 -14 3 -16z m-124 -108 c-3 -3 -1 -18 4 -32 l10 -26 -22 19 c-20 18 -22 18
-16 2 4 -11 3 -16 -4 -12 -5 4 -18 1 -27 -6 -9 -7 -1 4 17 24 19 20 37 37 40
37 2 0 2 -3 -2 -6z m389 -9 c-11 -8 -22 -12 -25 -9 -6 6 19 24 34 24 6 -1 1
-7 -9 -15z m-322 -10 c-4 -8 -10 -12 -15 -9 -11 6 -2 24 11 24 5 0 7 -7 4 -15z
m-1774 -55 l0 -60 -83 0 c-46 0 -86 2 -88 4 -2 2 -2 29 -1 60 l4 56 84 0 84 0
0 -60z m2130 50 c-8 -5 -19 -10 -25 -10 -5 0 -3 5 5 10 8 5 20 10 25 10 6 0 3
-5 -5 -10z m1314 -42 c4 -20 4 -46 -2 -96 -2 -10 -22 -12 -79 -10 l-78 3 -3
63 -3 62 80 0 c76 0 81 -1 85 -22z m-1431 -21 c3 -8 -1 -14 -9 -14 -15 0 -18
9 -7 20 9 9 10 9 16 -6z m-319 -12 c-23 -17 -44 -19 -44 -4 0 5 4 8 9 4 5 -3
12 -1 16 5 3 5 14 10 23 10 13 0 13 -2 -4 -15z m-92 -33 c-7 -2 -12 -8 -12
-13 0 -6 6 -7 13 -3 6 4 8 3 4 -1 -8 -10 -37 -16 -37 -8 0 13 36 50 39 40 2
-6 -1 -13 -7 -15z m315 -17 c-12 -12 -37 -10 -37 4 0 14 11 19 30 14 15 -4 16
-8 7 -18z m-268 -32 c-6 -7 -8 -17 -5 -22 9 -14 -14 -25 -26 -13 -15 15 0 51
22 49 14 -1 16 -4 9 -14z m-84 -13 c3 -5 -1 -10 -10 -10 -9 0 -14 -4 -11 -8 3
-5 -1 -9 -8 -9 -11 0 -12 4 -3 19 13 20 23 23 32 8z m893 -17 c-8 -10 -23 -28
-33 -40 -10 -12 -22 -20 -26 -17 -5 2 9 20 29 39 40 37 54 46 30 18z m-945
-43 c-3 -11 -9 -18 -13 -15 -8 5 -35 -45 -31 -58 1 -5 -3 -6 -8 -2 -6 3 -17
-8 -25 -24 -9 -16 -12 -31 -8 -34 4 -2 1 -2 -5 -1 -7 2 -13 -2 -13 -8 0 -6 -3
-8 -6 -5 -7 7 9 34 68 115 42 57 49 62 41 32z m312 -1 c10 -14 1 -21 -19 -13
-9 3 -13 10 -10 15 7 12 21 11 29 -2z m-770 -64 c-22 -19 -46 -34 -54 -35 -13
0 7 18 59 52 40 27 38 20 -5 -17z m1275 0 c-7 -8 -17 -15 -23 -15 -6 0 -2 7 9
15 25 19 30 19 14 0z m-600 -15 c0 -5 -5 -10 -11 -10 -5 0 -7 5 -4 10 3 6 8
10 11 10 2 0 4 -4 4 -10z m41 -13 c-10 -9 -11 -8 -5 6 3 10 9 15 12 12 3 -3 0
-11 -7 -18z m-67 -16 c3 -5 -1 -11 -9 -15 -15 -6 -29 7 -18 18 9 9 21 8 27 -3z
m6 -36 c-24 -25 -46 -45 -49 -45 -3 0 0 5 7 12 8 8 8 17 1 32 -9 18 -8 19 3 5
12 -15 16 -14 42 12 16 16 32 29 35 29 3 0 -15 -20 -39 -45z m-730 14 c0 -5
-4 -9 -8 -9 -5 0 -9 7 -9 15 0 8 4 12 9 9 4 -3 8 -9 8 -15z m-40 -3 c0 -2 -7
-7 -16 -10 -8 -3 -12 -2 -9 4 6 10 25 14 25 6z m-50 -30 c0 -2 -8 -10 -17 -17
-16 -13 -17 -12 -4 4 13 16 21 21 21 13z m504 -16 c-22 -9 -29 -6 -20 9 4 6
14 7 23 4 15 -6 14 -7 -3 -13z m-1229 -8 c-3 -3 -11 0 -18 7 -9 10 -8 11 6 5
10 -3 15 -9 12 -12z m1479 -8 c3 -8 2 -12 -4 -9 -6 3 -10 10 -10 16 0 14 7 11
14 -7z m-1439 -4 c3 -5 2 -10 -4 -10 -5 0 -13 5 -16 10 -3 6 -2 10 4 10 5 0
13 -4 16 -10z m1379 -11 c25 -22 25 -55 0 -45 -7 3 -11 0 -8 -7 2 -7 -6 -18
-18 -26 l-21 -13 22 37 c21 35 21 39 5 56 -23 26 -10 24 20 -2z m-777 -25
c-26 -20 -44 -41 -40 -47 4 -6 1 -7 -7 -2 -10 6 -2 18 31 47 24 21 48 38 53
38 5 0 -12 -16 -37 -36z m542 9 c-8 -10 -23 -34 -34 -55 -10 -20 -27 -47 -38
-60 -17 -21 -17 -19 1 12 12 20 27 47 34 60 24 44 42 69 47 65 2 -3 -2 -13
-10 -22z m821 23 c0 -2 -7 -7 -16 -10 -8 -3 -12 -2 -9 4 6 10 25 14 25 6z
m-1925 -24 c-3 -3 -11 0 -18 7 -9 10 -8 11 6 5 10 -3 15 -9 12 -12z m1984 -14
c-5 -10 -11 -18 -12 -18 -2 0 -3 8 -3 18 0 10 6 19 13 19 8 0 9 -6 2 -19z
m-114 -8 c-10 -11 -22 -20 -28 -20 -5 0 1 9 14 20 31 25 37 25 14 0z m-1262
-14 c-10 -13 -20 -22 -22 -20 -4 4 29 44 36 44 2 0 -4 -11 -14 -24z m-109 -24
c3 -5 -1 -9 -9 -9 -8 0 -12 4 -9 9 3 4 7 8 9 8 2 0 6 -4 9 -8z m1346 2 c0 -8
-19 -13 -24 -6 -3 5 1 9 9 9 8 0 15 -2 15 -3z m-1277 -26 c-78 -104 -116 -148
-88 -103 22 37 86 115 92 115 3 0 1 -6 -4 -12z m717 1 c0 -3 -9 -14 -20 -24
-11 -10 -20 -13 -20 -7 0 7 5 12 11 12 5 0 7 5 4 10 -4 6 -11 8 -16 5 -5 -4
-9 -2 -9 3 0 6 11 9 25 8 14 0 25 -4 25 -7z m-826 -18 c-10 -10 -21 -17 -23
-15 -6 6 20 34 32 34 6 0 2 -8 -9 -19z m1336 4 c-7 -8 -17 -15 -22 -15 -11 0
14 29 26 30 5 0 3 -7 -4 -15z m100 -23 c0 -14 -81 -124 -87 -118 -3 2 7 17 21
33 14 15 26 39 26 53 0 18 3 21 9 11 7 -11 10 -9 16 8 6 21 15 28 15 13z
m-1491 -36 c-12 -14 -27 -26 -33 -26 -5 0 3 13 19 30 34 36 46 33 14 -4z m827
22 c5 4 -15 -17 -43 -47 -28 -29 -56 -50 -62 -46 -12 7 -15 26 -3 24 24 -4 42
3 42 16 0 9 11 21 25 27 21 9 23 14 12 27 -10 14 -10 14 4 4 9 -7 20 -9 25 -5z
m-235 -35 c-12 -20 -14 -14 -5 12 4 9 9 14 11 11 3 -2 0 -13 -6 -23z m734 7
c3 -6 -5 -14 -19 -20 -15 -5 -25 -15 -24 -22 2 -6 -6 -14 -17 -16 -16 -3 -13
3 14 32 39 41 38 40 46 26z m-1365 -33 c0 -2 -10 -12 -21 -23 -22 -19 -22 -19
-10 4 10 18 31 31 31 19z m596 -34 c-8 -15 -15 -25 -16 -21 0 12 23 58 27 54
3 -2 -2 -17 -11 -33z m-516 -24 c-7 -11 -14 -18 -17 -15 -3 3 0 12 7 21 18 21
23 19 10 -6z m680 7 c0 -2 -8 -10 -17 -17 -16 -13 -17 -12 -4 4 13 16 21 21
21 13z m510 0 c0 -2 -8 -10 -17 -17 -16 -13 -17 -12 -4 4 13 16 21 21 21 13z
m103 -101 c-26 -35 -49 -62 -51 -60 -4 4 86 125 93 125 3 0 -17 -29 -42 -65z
m-1333 35 c-6 -11 -13 -20 -16 -20 -2 0 0 9 6 20 6 11 13 20 16 20 2 0 0 -9
-6 -20z m513 5 c-3 -9 -8 -14 -10 -11 -3 3 -2 9 2 15 9 16 15 13 8 -4z m146 6
c7 -5 9 -11 5 -14 -5 -3 -15 1 -22 9 -14 16 -5 18 17 5z m517 -16 c-1 -9 -6
-16 -12 -16 -5 0 -15 -6 -23 -12 -12 -10 -13 -9 -6 3 22 40 45 54 41 25z
m-541 -25 c-3 -5 -12 -10 -18 -10 -7 0 -6 4 3 10 19 12 23 12 15 0z m-664 -17
c-5 -10 -17 -27 -26 -38 -16 -19 -16 -19 -4 5 13 27 29 50 36 50 2 0 -1 -8 -6
-17z m509 -13 c-27 -39 -34 -39 -12 0 9 16 21 30 25 30 5 0 -1 -13 -13 -30z
m595 -46 c-25 -31 -58 -66 -73 -77 -27 -20 -27 -20 3 14 45 52 109 119 113
119 2 0 -18 -25 -43 -56z m-516 -16 c-28 -32 -53 -58 -56 -58 -8 0 10 24 46
63 20 21 35 42 34 46 -1 4 4 8 12 8 8 0 -8 -26 -36 -59z m705 -13 c-20 -30
-20 -30 -20 -6 0 11 4 17 8 15 4 -3 8 0 8 5 0 6 5 11 10 11 6 0 3 -11 -6 -25z
m-1381 -64 c-15 -28 -29 -48 -31 -46 -4 4 48 95 55 95 2 0 -8 -22 -24 -49z
m1347 8 c-7 -11 -14 -18 -17 -15 -3 3 0 12 7 21 18 21 23 19 10 -6z m-1370 -3
c0 -3 -4 -8 -10 -11 -5 -3 -10 -1 -10 4 0 6 5 11 10 11 6 0 10 -2 10 -4z m531
-19 c-10 -9 -11 -8 -5 6 3 10 9 15 12 12 3 -3 0 -11 -7 -18z m109 19 c0 -2 -8
-10 -17 -17 -16 -13 -17 -12 -4 4 13 16 21 21 21 13z m690 -12 c0 -8 -19 -13
-24 -6 -3 5 1 9 9 9 8 0 15 -2 15 -3z m-226 -25 c-4 -8 1 -9 17 -5 13 3 18 3
12 0 -7 -3 -13 -12 -13 -20 0 -12 -4 -12 -21 -4 -16 9 -18 14 -8 26 14 17 23
19 13 3z m222 -21 c-18 -26 -22 -17 -5 14 6 11 13 17 16 15 3 -3 -2 -16 -11
-29z m-716 18 c0 -2 -8 -10 -17 -17 -16 -13 -17 -12 -4 4 13 16 21 21 21 13z
m688 -26 c-1 -17 -5 -27 -11 -23 -6 4 -8 0 -5 -9 4 -8 1 -15 -6 -15 -6 0 -12
8 -12 18 0 10 4 15 8 13 4 -3 10 7 14 21 8 33 13 32 12 -5z m-232 -20 c0 -10
-2 -17 -5 -15 -2 3 -11 -1 -19 -8 -13 -10 -14 -9 -7 3 9 16 26 40 29 40 1 0 2
-9 2 -20z m-1089 -12 c-3 -8 -6 -5 -6 6 -1 11 2 17 5 13 3 -3 4 -12 1 -19z
m1193 -27 c0 -6 -4 -13 -10 -16 -5 -3 -10 1 -10 9 0 9 5 16 10 16 6 0 10 -4
10 -9z m-138 -10 c8 11 9 11 6 1 -4 -16 -22 -18 -24 -2 -2 7 -1 6 3 -1 4 -8 8
-7 15 2z m-31 -30 c-9 -6 -10 -11 -2 -15 6 -4 11 -13 11 -19 0 -7 -6 -4 -14 5
-7 10 -17 14 -22 10 -4 -4 -2 1 5 11 7 9 19 17 25 17 6 0 5 -4 -3 -9z m191
-36 c-6 -34 -12 -32 -12 6 0 16 4 28 9 25 4 -3 6 -17 3 -31z m49 18 c-5 -10
-17 -27 -26 -38 -16 -19 -17 -19 -3 5 26 46 29 50 34 50 3 0 0 -8 -5 -17z
m-261 -33 c0 -5 -5 -10 -11 -10 -5 0 -7 5 -4 10 3 6 8 10 11 10 2 0 4 -4 4
-10z m-38 -17 c-6 -3 -10 -8 -8 -12 3 -4 -5 -13 -16 -20 -20 -12 -20 -12 2 19
12 17 25 28 29 24 3 -4 0 -9 -7 -11z m258 -17 c0 -3 -4 -8 -10 -11 -5 -3 -10
-1 -10 4 0 6 5 11 10 11 6 0 10 -2 10 -4z m-796 -52 c3 -8 2 -12 -4 -9 -6 3
-10 10 -10 16 0 14 7 11 14 -7z m765 -1 c-7 -10 -15 -20 -16 -22 -2 -2 -3 5
-3 17 0 14 6 22 16 22 14 0 15 -3 3 -17z m-291 -13 c-7 -11 -17 -20 -22 -20
-5 0 -1 9 9 20 10 11 20 20 22 20 2 0 -2 -9 -9 -20z m19 -52 c-3 -7 -5 -2 -5
12 0 14 2 19 5 13 2 -7 2 -19 0 -25z m247 20 c-3 -4 -11 -5 -19 -1 -8 3 -15
-1 -15 -8 0 -7 -3 -10 -6 -6 -10 10 6 26 26 24 10 -1 17 -5 14 -9z m-785 -52
c-12 -20 -23 -35 -26 -33 -2 3 6 21 18 41 12 20 23 35 26 33 2 -3 -6 -21 -18
-41z m458 0 c-17 -25 -36 -45 -40 -45 -4 -1 7 19 25 44 18 24 36 44 40 45 4 0
-7 -20 -25 -44z m297 9 c-9 -14 -18 -25 -21 -25 -5 0 5 18 20 38 17 22 18 13
1 -13z m-209 -5 c3 -5 -3 -10 -15 -10 -12 0 -18 5 -15 10 3 6 10 10 15 10 5 0
12 -4 15 -10z m-35 -45 c-14 -17 -50 -15 -43 1 5 14 33 23 46 16 4 -2 3 -10
-3 -17z m177 3 c-3 -8 -6 -5 -6 6 -1 11 2 17 5 13 3 -3 4 -12 1 -19z m-280
-32 c-4 -10 -1 -13 7 -10 8 3 16 -4 19 -15 6 -25 -10 -39 -19 -17 -3 9 -13 16
-20 16 -12 0 -12 4 -4 20 12 23 25 27 17 6z m265 -38 c2 -6 -5 -31 -16 -55
-19 -41 -21 -42 -32 -22 -14 26 4 72 25 64 9 -3 11 0 7 10 -3 8 -1 15 3 15 5
0 11 -5 13 -12z m-272 -31 c0 -7 -10 -13 -21 -14 -21 -2 -21 -1 -3 12 24 18
24 18 24 2z m-52 -52 c1 -32 -3 -53 -8 -50 -5 3 -6 13 -3 22 4 10 2 14 -5 9
-20 -12 -23 14 -5 44 9 16 18 30 18 30 1 0 2 -25 3 -55z m109 33 c-3 -8 -6 -5
-6 6 -1 11 2 17 5 13 3 -3 4 -12 1 -19z m123 -8 c0 -5 -2 -10 -4 -10 -3 0 -8
5 -11 10 -3 6 -1 10 4 10 6 0 11 -4 11 -10z m30 -36 c0 -8 -4 -12 -10 -9 -5 3
-10 10 -10 16 0 5 5 9 10 9 6 0 10 -7 10 -16z m-325 -44 c-10 -11 -13 -20 -7
-20 7 0 12 -5 12 -12 0 -6 -3 -8 -7 -5 -3 4 -12 -1 -19 -11 -12 -15 -13 -15
-14 -1 0 16 36 69 47 69 3 0 -2 -9 -12 -20z m296 -3 c-10 -9 -11 -8 -5 6 3 10
9 15 12 12 3 -3 0 -11 -7 -18z m32 8 c-3 -9 -8 -14 -10 -11 -3 3 -2 9 2 15 9
16 15 13 8 -4z m-283 -15 c0 -5 -4 -10 -10 -10 -5 0 -10 5 -10 10 0 6 5 10 10
10 6 0 10 -4 10 -10z m173 -23 c3 -8 1 -20 -4 -28 -6 -10 -9 -7 -9 14 0 29 5
35 13 14z m67 3 c0 -5 -5 -10 -11 -10 -5 0 -7 5 -4 10 3 6 8 10 11 10 2 0 4
-4 4 -10z m5 -40 c-25 -49 -38 -60 -50 -40 -3 5 -20 7 -38 4 -30 -5 -31 -4
-14 10 19 15 46 11 59 -8 4 -5 13 3 20 20 12 27 38 64 45 64 2 0 -8 -22 -22
-50z m-160 -10 c75 0 41 -17 -44 -22 -65 -3 -71 -2 -46 8 20 8 24 13 15 16 -8
3 -6 4 5 2 11 -2 42 -4 70 -4z"/>
<path d="M5073 3189 c14 -8 22 -8 30 0 8 8 3 11 -18 11 -26 -1 -28 -2 -12 -11z"/>
<path d="M5146 3183 c7 -4 14 -19 17 -33 4 -22 5 -21 4 4 -1 17 -9 31 -17 33
-10 3 -11 2 -4 -4z"/>
<path d="M5350 3024 c0 -14 3 -14 15 -4 8 7 15 14 15 16 0 2 -7 4 -15 4 -8 0
-15 -7 -15 -16z"/>
<path d="M5310 3005 c0 -9 6 -12 15 -9 8 4 12 10 9 15 -8 14 -24 10 -24 -6z"/>
<path d="M5195 2941 c-10 -17 12 -21 25 -6 10 12 10 15 -3 15 -9 0 -18 -4 -22
-9z"/>
<path d="M4840 2670 c-9 -6 -10 -10 -3 -10 6 0 15 5 18 10 8 12 4 12 -15 0z"/>
<path d="M4895 3170 c-16 -17 -16 -20 -3 -15 9 4 19 13 22 21 7 19 2 18 -19
-6z"/>
<path d="M4814 3105 c-17 -13 -17 -14 -2 -15 9 0 20 5 23 11 11 17 0 20 -21 4z"/>
<path d="M4679 2973 c-13 -16 -12 -17 4 -4 16 13 21 21 13 21 -2 0 -10 -8 -17
-17z"/>
<path d="M4270 1201 c0 -7 -4 -9 -10 -6 -6 4 -7 -1 -3 -11 6 -15 7 -15 15 1 6
9 7 19 4 22 -3 4 -6 1 -6 -6z"/>
<path d="M3956 1175 c-9 -26 -7 -32 5 -12 6 10 9 21 6 23 -2 3 -7 -2 -11 -11z"/>
<path d="M5761 3926 c2 -2 20 -13 39 -23 19 -11 123 -71 230 -133 312 -180
1094 -630 1318 -759 l132 -76 0 -56 0 -55 93 -18 c50 -9 106 -19 122 -22 42
-6 349 -63 408 -74 26 -6 50 -10 54 -10 3 0 -19 13 -48 29 -30 16 -115 62
-189 102 l-135 74 -5 103 -5 102 -310 178 c-493 283 -706 406 -915 528 l-196
114 -299 0 c-164 0 -296 -2 -294 -4z"/>
<path d="M8830 1965 c0 -1303 3 -1965 10 -1965 7 0 10 662 10 1965 0 1303 -3
1965 -10 1965 -7 0 -10 -662 -10 -1965z"/>
<path d="M1910 2674 c0 -16 -2 -17 -10 -4 -8 12 -10 11 -10 -7 0 -13 4 -23 9
-23 12 0 25 39 17 47 -3 4 -6 -2 -6 -13z"/>
<path d="M1822 2657 c-17 -13 -29 -27 -25 -30 11 -11 25 -8 17 4 -4 8 1 9 17
5 13 -3 18 -3 12 0 -22 10 -14 27 10 22 15 -3 24 0 24 9 0 19 -19 16 -55 -10z"/>
<path d="M6904 2664 c12 -28 76 -206 76 -209 0 -2 26 10 58 26 55 29 60 30
153 23 l96 -7 26 -121 c49 -228 51 -242 37 -290 -16 -60 -41 -81 -93 -80 -35
1 -46 7 -73 40 -33 39 -50 92 -79 242 -8 43 -15 89 -15 105 0 30 -10 33 -59
16 -33 -12 -37 -22 -21 -64 54 -141 137 -684 158 -1033 6 -90 13 -136 21 -142
7 -4 38 -10 68 -14 46 -5 58 -3 70 11 13 17 14 17 9 1 -8 -25 37 -34 264 -52
319 -25 430 -29 651 -21 l209 7 0 132 c0 128 -16 297 -46 486 -15 97 -94 493
-99 498 -1 2 -10 -4 -19 -13 -21 -21 -21 -11 0 20 9 14 12 25 7 25 -5 0 -8 14
-7 30 3 46 -13 46 -57 1 -34 -37 -53 -71 -31 -57 4 2 9 -5 9 -16 2 -18 1 -19
-10 -4 -17 23 -45 11 -42 -17 1 -12 0 -14 -2 -5 -4 15 -9 12 -31 -14 -15 -18
-26 -36 -25 -40 2 -4 -4 -8 -12 -8 -8 0 -15 -9 -15 -20 0 -11 -5 -20 -11 -20
-5 0 -7 6 -3 13 4 6 -2 3 -15 -7 -12 -11 -20 -25 -17 -32 3 -8 0 -11 -8 -8
-17 6 -40 -22 -30 -37 5 -9 2 -10 -10 -6 -14 5 -17 3 -12 -8 3 -8 1 -16 -4
-16 -6 -1 -14 -2 -19 -3 -19 -2 -22 -15 -11 -38 10 -20 10 -21 -3 -6 -13 16
-16 15 -45 -15 -33 -33 -42 -54 -19 -41 6 4 9 3 4 -1 -4 -5 -16 -10 -27 -12
-18 -3 -17 1 7 29 65 74 157 172 283 301 74 76 137 140 139 142 2 3 -2 26 -9
52 -7 26 -14 55 -16 64 -3 11 -25 20 -65 28 -34 7 -63 10 -66 8 -2 -3 -19 -1
-36 5 -51 17 -100 17 -119 0 -10 -8 -16 -17 -14 -21 1 -3 -16 -22 -38 -41
l-41 -35 48 55 c26 30 47 57 47 60 0 4 -42 12 -92 19 -51 7 -109 16 -128 21
-19 5 -53 11 -76 14 -22 2 -56 7 -75 10 -291 48 -597 97 -643 102 -56 7 -59 6
-52 -12z m1136 -182 c0 -5 -7 -9 -15 -9 -8 0 -12 4 -9 9 3 4 9 8 15 8 5 0 9
-4 9 -8z m111 -32 c-13 -11 -28 -20 -35 -19 -7 0 -6 2 2 6 6 2 9 10 6 15 -4 6
-3 8 2 5 6 -3 16 -2 24 4 26 15 26 9 1 -11z m-201 -193 c-91 -89 -190 -190
-221 -223 -45 -48 -56 -56 -55 -38 0 12 4 20 7 18 8 -5 169 163 169 176 0 6 6
10 13 10 7 0 17 10 22 23 6 12 15 21 20 21 9 -2 97 84 103 99 1 4 3 6 5 5 3
-3 44 31 66 54 9 9 21 17 26 17 6 1 -64 -72 -155 -162z m-65 123 c3 -6 -1 -7
-9 -4 -10 4 -16 1 -16 -7 0 -7 -3 -10 -6 -6 -7 7 4 27 16 27 5 0 12 -4 15 -10z
m-48 -40 c1 -11 -2 -18 -8 -15 -5 4 -12 -1 -15 -9 -3 -9 -10 -16 -15 -16 -5 0
0 14 13 30 12 17 22 30 23 30 0 0 1 -9 2 -20z m-91 -105 c-21 -25 -34 -50 -30
-56 4 -8 3 -9 -4 -5 -16 10 -15 -6 1 -24 10 -12 9 -12 -7 0 -16 13 -20 12 -32
-5 -7 -11 -17 -25 -22 -31 -5 -6 -26 -34 -47 -62 -20 -29 -39 -52 -41 -52 -5
0 47 82 57 90 5 5 124 158 144 185 5 8 11 12 14 10 2 -3 -13 -25 -33 -50z
m552 -80 c-23 -26 -39 -35 -18 -10 6 8 8 20 4 26 -4 8 -3 9 4 5 7 -4 12 -2 12
4 0 6 4 9 10 5 5 -3 0 -17 -12 -30z m-132 -132 c-50 -51 -95 -93 -100 -93 -5
0 3 13 18 29 15 15 28 37 29 48 0 12 6 19 12 17 6 -3 34 16 63 42 44 39 50 49
40 62 -11 13 -10 14 8 2 21 -13 18 -17 -70 -107z m-600 -45 c4 -7 3 -8 -4 -4
-6 4 -18 -5 -26 -21 -8 -15 -15 -23 -16 -18 0 11 28 55 35 55 2 0 7 -5 11 -12z
m64 -51 l-34 -32 30 36 c16 20 31 34 33 32 3 -2 -10 -18 -29 -36z m-120 -17
c0 -5 -5 -10 -11 -10 -5 0 -7 5 -4 10 3 6 8 10 11 10 2 0 4 -4 4 -10z m550 5
c0 -1 -19 -19 -42 -40 -23 -22 -35 -31 -25 -19 9 11 14 24 10 29 -5 4 -2 4 6
0 11 -6 13 -4 8 7 -7 20 0 27 24 25 10 -1 19 -2 19 -2z m-567 -38 c3 -8 -1
-14 -8 -14 -7 0 -11 6 -8 14 3 7 6 13 8 13 2 0 5 -6 8 -13z m76 -22 c-41 -45
-48 -45 -12 0 15 19 31 35 36 35 4 0 -7 -16 -24 -35z m260 -38 c0 -9 -2 -8 -6
1 -2 6 -10 9 -15 6 -7 -4 -8 -2 -4 5 9 13 26 5 25 -12z m110 -35 c-112 -119
-139 -145 -133 -128 6 14 4 17 -6 11 -8 -5 -11 -4 -6 3 4 6 14 8 23 5 13 -5
15 -2 10 11 -4 9 -3 15 2 12 10 -6 101 90 101 106 0 5 4 7 9 4 5 -3 12 1 15
10 4 9 9 14 13 10 4 -3 -9 -23 -28 -44z m-409 24 c0 -3 -4 -8 -10 -11 -5 -3
-10 -1 -10 4 0 6 5 11 10 11 6 0 10 -2 10 -4z m235 -34 l-28 -27 23 33 c12 18
25 31 28 27 3 -3 -7 -18 -23 -33z m-339 0 c0 -10 -6 -19 -13 -19 -8 0 -9 6 -2
19 5 10 11 18 12 18 2 0 3 -8 3 -18z m47 -36 c-10 -13 -20 -22 -22 -20 -4 4
29 44 36 44 2 0 -4 -11 -14 -24z m253 -15 c0 -11 -3 -18 -6 -16 -3 2 -22 -16
-41 -41 -18 -25 -44 -57 -56 -71 -18 -20 -20 -30 -12 -47 10 -20 9 -20 -5 -2
-14 17 -14 22 2 48 9 16 32 46 51 66 18 20 40 47 48 60 18 27 19 27 19 3z m-1
-51 c3 -5 1 -10 -4 -10 -6 0 -11 5 -11 10 0 6 2 10 4 10 3 0 8 -4 11 -10z
m-362 -13 c3 -8 -1 -14 -9 -14 -15 0 -18 9 -7 20 9 9 10 9 16 -6z m415 -55
c-13 -16 -25 -25 -27 -20 -4 11 28 48 41 48 5 0 -1 -13 -14 -28z m-408 4 c0
-2 -8 -10 -17 -17 -16 -13 -17 -12 -4 4 13 16 21 21 21 13z m294 -142 c-44
-53 -89 -108 -100 -122 l-21 -26 0 28 c0 15 3 23 6 17 7 -11 27 5 46 38 6 11
4 13 -8 8 -9 -3 -19 -2 -21 2 -3 5 6 8 21 7 20 -1 33 9 59 48 19 26 31 52 28
57 -3 5 2 6 10 3 9 -3 21 5 32 21 9 14 19 23 22 21 2 -3 -31 -49 -74 -102z
m-84 76 c0 -5 -5 -10 -11 -10 -5 0 -7 5 -4 10 3 6 8 10 11 10 2 0 4 -4 4 -10z
m-20 -29 c0 -4 -16 -28 -35 -52 -24 -31 -31 -46 -22 -51 8 -5 6 -8 -5 -8 -16
0 -22 -10 -20 -31 1 -3 -6 -6 -14 -6 -7 0 -14 2 -14 3 0 5 103 154 107 154 2
0 3 -4 3 -9z m-310 -71 c0 -5 -5 -10 -11 -10 -5 0 -7 5 -4 10 3 6 8 10 11 10
2 0 4 -4 4 -10z m-22 -40 c-7 -10 -14 -18 -15 -16 -6 6 9 36 18 36 5 0 4 -9
-3 -20z m196 -88 c-8 -18 -20 -32 -25 -32 -5 0 1 15 13 34 28 42 34 41 12 -2z
m109 2 c6 -6 -77 -119 -97 -131 -5 -4 10 21 34 55 23 34 48 62 54 62 6 0 4 5
-4 10 -8 5 -10 10 -4 10 6 0 14 -3 17 -6z m-147 -68 c0 -14 -6 -22 -13 -19 -9
4 -9 9 0 24 15 24 15 24 13 -5z m-33 -41 c-3 -9 -8 -14 -10 -11 -3 3 -2 9 2
15 9 16 15 13 8 -4z"/>
<path d="M1755 2660 c-7 -12 2 -12 30 0 19 8 19 9 -2 9 -12 1 -25 -3 -28 -9z"/>
<path d="M1697 2653 c-10 -3 -35 -22 -57 -43 -21 -21 -42 -35 -46 -31 -4 3 -4
-2 -1 -12 4 -10 3 -16 -1 -13 -10 6 -21 -2 -44 -29 -16 -20 -15 -20 67 -23 46
-2 86 1 89 6 3 5 18 8 33 6 16 -2 23 -2 17 1 -12 6 -6 65 6 65 11 0 20 28 14
44 -4 9 -17 12 -42 10 -31 -3 -33 -2 -14 6 38 16 25 25 -21 13z m60 -59 c-3
-3 -12 -4 -19 -1 -8 3 -5 6 6 6 11 1 17 -2 13 -5z m-97 -23 c0 -5 -7 -12 -16
-15 -14 -5 -15 -4 -4 9 14 17 20 19 20 6z"/>
<path d="M1440 2609 c-91 -16 -189 -31 -219 -34 -29 -3 -62 -10 -73 -16 -10
-6 -29 -10 -41 -9 -39 4 -58 0 -53 -9 3 -5 15 -7 25 -4 10 3 22 0 25 -5 3 -6
-2 -8 -13 -5 -10 3 -22 0 -25 -6 -9 -14 -53 -14 -61 -1 -3 6 2 10 12 11 10 0
13 3 6 5 -10 4 -444 -64 -451 -70 -7 -7 -90 -328 -113 -436 -24 -113 -77 -409
-77 -430 0 -8 -5 -50 -11 -92 -6 -42 -13 -148 -17 -236 l-7 -160 29 -5 c70
-14 432 -18 614 -8 250 15 632 58 644 73 2 1 6 55 10 118 19 336 75 701 157
1024 11 43 18 79 17 80 -16 10 -62 26 -72 26 -9 0 -17 -26 -25 -77 -21 -136
-51 -247 -76 -285 -28 -42 -81 -63 -121 -48 -53 20 -81 123 -54 194 5 15 5 28
0 31 -5 3 0 31 10 63 23 70 51 194 45 201 -3 2 -15 -4 -27 -15 -13 -10 2 7 32
40 30 32 73 71 94 87 l39 29 -29 -1 c-16 0 -103 -14 -194 -30z m-146 -51 c-39
-44 -63 -66 -67 -61 -3 2 14 22 37 43 45 43 60 52 30 18z m-39 -8 c-3 -5 -11
-10 -16 -10 -6 0 -7 5 -4 10 3 6 11 10 16 10 6 0 7 -4 4 -10z m-85 -10 c0 -5
-4 -10 -9 -10 -6 0 -13 5 -16 10 -3 6 1 10 9 10 9 0 16 -4 16 -10z m-201 -62
c-13 -18 -30 -39 -37 -47 -13 -13 -12 -16 4 -22 15 -6 15 -8 3 -8 -36 -2 -29
24 24 85 29 34 32 30 6 -8z m84 5 c-7 -2 -21 -2 -30 0 -10 3 -4 5 12 5 17 0
24 -2 18 -5z m157 -12 c-13 -25 -27 -34 -40 -26 -6 4 -1 14 12 25 30 25 41 25
28 1z m-210 -9 c0 -10 -7 -27 -15 -38 -13 -17 -13 -15 -3 19 12 41 18 47 18
19z m140 -12 c0 -4 -7 -11 -16 -14 -13 -5 -14 -4 -6 7 7 8 8 18 4 22 -4 5 -1
5 6 1 6 -4 12 -11 12 -16z m340 7 c0 -2 -19 -21 -42 -42 l-43 -40 40 43 c36
39 45 47 45 39z m-310 -23 c0 -3 -14 -19 -32 -37 -17 -18 -26 -24 -19 -15 7 9
9 23 5 29 -4 7 -3 9 3 6 6 -4 13 0 17 8 5 14 26 22 26 9z m272 -56 c-7 -7 -12
-8 -12 -2 0 6 3 14 7 17 3 4 9 5 12 2 2 -3 -1 -11 -7 -17z m-544 5 c-10 -2
-18 -11 -18 -19 0 -8 -4 -14 -8 -14 -14 0 -72 -87 -64 -95 4 -5 2 -5 -5 -2 -6
4 -14 1 -16 -5 -3 -7 -6 -8 -6 -3 -1 21 100 145 117 144 16 -1 16 -2 0 -6z
m139 -97 c-34 -39 -64 -73 -67 -76 -12 -12 -87 -98 -113 -129 -15 -18 -30 -31
-33 -29 -2 3 14 25 36 50 21 25 36 49 32 53 -4 5 -1 5 7 0 9 -5 12 -3 9 6 -3
8 -10 14 -15 14 -6 0 -15 3 -19 8 -4 4 -1 7 7 7 8 0 20 -5 27 -12 8 -8 16 -5
31 13 11 13 18 30 16 37 -2 6 0 13 5 13 6 1 15 2 22 3 7 0 23 17 35 36 13 19
31 41 40 48 9 6 13 12 9 12 -4 0 -5 4 -2 8 3 5 12 9 20 9 9 0 -10 -29 -47 -71z
m414 47 c-12 -20 -14 -14 -5 12 4 9 9 14 11 11 3 -2 0 -13 -6 -23z m-35 -10
c-10 -10 -19 5 -10 18 6 11 8 11 12 0 2 -7 1 -15 -2 -18z m-526 -5 c0 -16 -3
-19 -11 -11 -6 6 -8 16 -5 22 11 17 16 13 16 -11z m444 -20 c-4 -7 -7 -27 -6
-44 2 -18 -2 -35 -8 -39 -6 -3 -8 -10 -6 -14 3 -4 -1 -8 -9 -8 -19 0 -19 13 0
21 18 7 21 50 3 44 -7 -3 -18 -15 -24 -27 -6 -12 -15 -22 -19 -21 -4 1 -11 -4
-16 -11 -4 -8 -10 -11 -13 -8 -3 3 18 31 46 62 48 54 68 72 52 45z m111 -105
c-15 -22 -108 -129 -201 -229 -11 -13 -94 -112 -195 -234 -34 -41 -67 -77 -73
-79 -6 -2 -1 7 12 21 12 13 19 28 15 33 -5 4 -2 5 5 1 17 -10 15 5 -4 32 -8
12 -11 22 -6 22 5 0 13 -10 19 -22 8 -20 14 -15 72 56 56 69 62 80 53 101 -13
29 -4 40 17 21 14 -13 22 -7 71 52 30 37 54 70 53 74 -2 4 4 5 12 2 15 -6 22
11 8 19 -5 2 -2 2 4 1 15 -4 103 86 118 119 8 20 24 36 34 37 2 0 -5 -12 -14
-27z m-704 -11 c-5 -10 -18 -25 -28 -33 -12 -10 -11 -5 6 19 24 35 38 43 22
14z m37 -7 c-3 -3 -9 2 -12 12 -6 14 -5 15 5 6 7 -7 10 -15 7 -18z m433 -18
c-14 -16 -19 -31 -15 -43 4 -14 3 -15 -4 -5 -7 9 -12 10 -16 2 -4 -6 3 -15 16
-21 20 -8 19 -9 -11 -6 -24 3 -31 2 -23 -6 12 -12 5 -38 -10 -38 -5 0 -6 5 -3
10 10 15 -3 12 -25 -7 -11 -10 -20 -22 -20 -29 0 -6 -6 -11 -14 -11 -15 0 123
176 138 177 5 0 0 -11 -13 -23z m-500 -57 c5 0 9 -4 9 -10 0 -5 -7 -10 -16
-10 -8 0 -12 5 -9 10 10 16 -6 12 -29 -7 -20 -17 -20 -17 -6 2 31 41 35 44 38
29 2 -8 8 -14 13 -14z m89 -47 c0 -7 -4 -13 -10 -13 -5 0 -7 6 -4 14 3 8 1 17
-5 21 -6 3 -11 11 -11 18 0 15 29 -25 30 -40z m20 -17 c0 -2 -6 -9 -14 -15
-11 -9 -16 -9 -22 0 -4 7 -3 9 4 5 6 -3 13 -2 17 4 6 10 15 14 15 6z m424 -5
c3 -4 -1 -17 -9 -27 -14 -18 -14 -17 -13 9 2 27 12 35 22 18z m-629 -43 c-1
-12 -9 -22 -18 -24 -15 -2 -15 0 0 22 19 29 20 30 18 2z m168 5 c-7 -2 -13
-10 -13 -16 -1 -7 -19 -32 -42 -57 -45 -49 -42 -41 10 33 19 26 39 47 45 46 8
0 8 -2 0 -6z m299 -42 c3 -22 0 -31 -14 -34 -14 -4 -16 -2 -8 13 14 26 13 53
-2 44 -7 -4 -8 -3 -4 5 11 17 23 5 28 -28z m38 29 c0 -5 -4 -10 -10 -10 -5 0
-10 5 -10 10 0 6 5 10 10 10 6 0 10 -4 10 -10z m-72 -35 c-2 -5 -9 -10 -17
-12 -8 -1 -18 -8 -22 -15 -5 -7 -9 -9 -9 -4 0 14 32 47 43 43 4 -1 7 -7 5 -12z
m-495 -44 c-15 -28 -29 -48 -31 -46 -4 4 48 95 55 95 2 0 -8 -22 -24 -49z m60
36 c7 3 8 2 4 -2 -14 -16 -36 -14 -29 3 4 10 7 12 10 4 2 -7 9 -9 15 -5z m377
-47 c-13 -9 -13 -11 0 -20 12 -7 10 -9 -7 -7 -17 1 -20 5 -12 19 5 10 15 18
22 18 8 0 6 -4 -3 -10z m60 -20 c0 -5 -7 -10 -16 -10 -8 0 -12 5 -9 10 3 6 10
10 16 10 5 0 9 -4 9 -10z m61 -17 c-12 -20 -14 -14 -5 12 4 9 9 14 11 11 3 -2
0 -13 -6 -23z m-441 -8 c-13 -14 -28 -25 -34 -25 -6 1 3 12 19 25 39 32 45 32
15 0z m277 -15 c1 -11 -2 -18 -7 -15 -5 3 -14 -4 -20 -15 -6 -11 -15 -20 -21
-20 -6 0 -3 7 5 16 9 8 21 24 26 35 13 24 15 24 17 -1z m-440 -15 c-7 -13 -14
-20 -15 -14 -2 5 2 16 8 24 18 21 20 18 7 -10z m460 -7 c-3 -8 -6 -5 -6 6 -1
11 2 17 5 13 3 -3 4 -12 1 -19z m-347 -22 c0 -2 -8 -10 -17 -17 -16 -13 -17
-12 -4 4 13 16 21 21 21 13z m-149 -29 c-10 -9 -11 -8 -5 6 3 10 9 15 12 12 3
-3 0 -11 -7 -18z m412 -9 c-3 -13 -19 -34 -36 -48 -17 -14 -27 -18 -22 -10 8
14 59 80 61 80 1 0 -1 -10 -3 -22z m57 10 c0 -11 -12 -10 -30 2 -12 7 -10 9 8
7 12 0 22 -5 22 -9z m-364 -36 c-18 -16 -18 -16 -6 6 6 13 14 21 18 18 3 -4
-2 -14 -12 -24z m-144 -44 c-8 -8 -9 -4 -5 13 4 13 8 18 11 10 2 -7 -1 -18 -6
-23z m128 18 c0 -3 -4 -8 -10 -11 -5 -3 -10 -1 -10 4 0 6 5 11 10 11 6 0 10
-2 10 -4z m-30 -33 c0 -5 -10 -19 -21 -33 l-21 -25 18 33 c18 32 24 38 24 25z
m284 -8 c-4 -8 -11 -15 -16 -15 -6 0 -5 6 2 15 7 8 14 15 16 15 2 0 1 -7 -2
-15z m145 -24 c7 -5 9 -11 5 -14 -5 -3 -15 1 -22 9 -14 16 -5 18 17 5z m-185
-23 c-25 -43 -97 -138 -101 -134 -3 3 5 18 18 35 13 16 37 48 52 70 26 38 48
58 31 29z m-301 -29 c-8 -8 -13 -7 -18 2 -6 8 -4 10 5 4 10 -6 12 -4 6 11 -6
15 -5 17 5 7 9 -10 10 -16 2 -24z m435 -25 c-14 -14 -15 -14 -13 8 3 33 4 33
17 20 9 -9 9 -16 -4 -28z m-466 -26 c-14 -14 -44 -20 -36 -7 3 5 10 7 15 4 5
-4 9 -1 9 4 0 6 5 11 12 11 9 0 9 -3 0 -12z m441 -10 c-6 -7 -45 -60 -87 -117
-42 -57 -76 -99 -76 -93 0 6 7 17 15 26 9 8 14 19 13 23 -1 4 11 22 27 38 17
17 37 41 45 54 21 33 61 81 67 81 3 0 1 -6 -4 -12z m-238 -98 c-16 -26 -21
-40 -13 -41 7 0 2 -4 -10 -10 -13 -5 -26 -18 -29 -28 -3 -11 -11 -22 -19 -25
-13 -5 43 91 74 127 25 28 24 19 -3 -23z m22 -15 c0 -8 -4 -15 -9 -15 -10 0
-11 14 -1 23 9 10 10 9 10 -8z m-107 -119 c0 -2 -7 -9 -15 -16 -13 -11 -14
-10 -9 4 5 14 24 23 24 12z m-38 -58 c-7 -7 -12 -8 -12 -2 0 14 12 26 19 19 2
-3 -1 -11 -7 -17z m129 -31 c-10 -9 -11 -8 -5 6 3 10 9 15 12 12 3 -3 0 -11
-7 -18z m-180 -44 c-12 -20 -14 -14 -5 12 4 9 9 14 11 11 3 -2 0 -13 -6 -23z
m159 12 c-7 -9 -15 -13 -17 -11 -7 7 7 26 19 26 6 0 6 -6 -2 -15z"/>
<path d="M1869 2627 c19 -19 -26 -57 -59 -50 -17 3 -31 0 -35 -8 -5 -8 -4 -10
3 -5 7 4 12 2 12 -5 0 -8 4 -8 15 1 29 24 15 0 -19 -33 l-34 -33 44 -21 c24
-12 44 -20 44 -19 0 2 13 41 30 87 16 46 27 85 24 88 -2 3 -12 6 -21 7 -11 2
-13 0 -4 -9z"/>
<path d="M1833 2603 c0 -9 4 -10 14 -2 7 6 13 12 13 14 0 1 -6 2 -13 2 -8 0
-14 -6 -14 -14z"/>
<path d="M1997 2483 c-109 -331 -185 -750 -201 -1113 -5 -114 -4 -122 9 -95 8
17 14 26 15 21 0 -5 8 -2 17 5 9 8 2 -8 -16 -34 -67 -99 -38 -87 237 97 145
97 265 176 268 176 2 0 4 -37 4 -82 0 -90 21 -264 46 -386 17 -82 30 -113 20
-47 -10 66 -26 397 -28 593 -1 100 -5 182 -9 182 -4 0 -12 -7 -19 -15 -7 -8
-19 -15 -26 -15 -8 0 -14 -4 -14 -9 0 -4 -26 -28 -57 -53 -32 -25 -83 -71
-113 -102 -30 -31 -62 -56 -70 -55 -13 0 -13 1 0 6 8 4 40 31 71 62 31 31 70
67 86 81 17 14 31 28 32 33 1 4 2 6 4 5 3 -3 60 41 90 69 11 10 18 33 19 62 0
25 2 58 2 73 2 27 1 27 -24 11 -14 -9 -30 -24 -37 -32 -6 -9 -14 -13 -18 -10
-3 4 14 24 39 44 l46 37 0 67 c0 37 7 121 16 186 9 66 17 128 18 138 1 13 -45
41 -181 112 -100 52 -184 95 -186 95 -3 0 -21 -48 -40 -107z m264 -596 c-6 -8
-7 -18 -3 -22 4 -5 2 -5 -4 -2 -14 8 -57 -36 -47 -48 5 -4 3 -5 -3 -2 -6 4
-24 -9 -40 -29 -39 -47 -131 -144 -113 -119 40 55 206 235 217 235 2 0 -1 -6
-7 -13z m39 -11 c0 -3 -4 -8 -10 -11 -5 -3 -10 -1 -10 4 0 6 5 11 10 11 6 0
10 -2 10 -4z m-269 -249 c-6 -8 -9 -16 -6 -19 3 -2 -2 -5 -10 -5 -13 0 -13 3
2 19 19 21 31 25 14 5z m-55 -75 l-29 -27 23 32 c13 18 26 30 29 28 3 -3 -8
-18 -23 -33z m84 -16 c0 -3 -4 -8 -10 -11 -5 -3 -10 -1 -10 4 0 6 5 11 10 11
6 0 10 -2 10 -4z m-100 -20 c0 -2 -7 -7 -16 -10 -8 -3 -12 -2 -9 4 6 10 25 14
25 6z m70 -5 c0 -5 -7 -12 -16 -15 -14 -5 -15 -4 -4 9 14 17 20 19 20 6z m-80
-86 c-24 -25 -46 -45 -48 -45 -9 0 73 88 83 89 5 1 -11 -19 -35 -44z m-60 -68
c0 -2 -10 -12 -22 -23 l-23 -19 19 23 c18 21 26 27 26 19z"/>
<path d="M6600 2499 c-96 -50 -178 -94 -182 -98 -4 -3 -1 -44 6 -91 8 -47 17
-124 21 -173 l7 -87 75 -67 c85 -76 120 -120 97 -120 -7 0 -12 3 -9 5 9 9 -17
32 -28 25 -6 -3 -7 -1 -3 5 10 17 -46 64 -57 49 -6 -8 -7 -6 -4 4 3 10 -5 26
-19 40 -13 12 -24 19 -24 14 0 -5 -7 0 -15 11 -14 19 -14 19 -15 -3 0 -12 4
-24 9 -27 5 -3 6 -21 2 -38 -4 -18 -9 -150 -10 -293 -2 -240 -12 -456 -27
-598 -4 -31 -4 -57 -1 -57 15 0 67 350 67 454 0 40 3 75 6 79 4 3 52 -26 108
-65 124 -87 413 -278 421 -278 10 0 -17 375 -40 555 -20 151 -51 318 -86 460
-36 143 -110 385 -118 385 -3 0 -85 -41 -181 -91z m-37 -704 c20 -16 37 -33
37 -37 0 -5 -10 1 -22 11 -70 61 -84 71 -90 71 -5 0 -8 5 -8 11 0 6 10 2 23
-8 12 -10 39 -31 60 -48z m128 14 c25 -32 29 -43 19 -52 -10 -9 -11 -9 -6 1 4
7 -6 29 -24 52 -17 22 -29 40 -27 40 3 0 20 -18 38 -41z m79 -113 c0 -5 -7 -1
-15 10 -8 10 -14 24 -14 29 0 6 6 1 14 -9 8 -11 15 -24 15 -30z m-100 18 c0
-8 -19 -13 -24 -6 -3 5 1 9 9 9 8 0 15 -2 15 -3z m45 -54 c12 -19 -12 -10 -31
11 -19 22 -19 22 3 10 12 -6 25 -16 28 -21z m108 -31 c3 -10 1 -17 -4 -13 -5
3 -9 10 -9 16 0 6 -8 21 -17 32 -18 21 -18 21 4 3 11 -10 23 -27 26 -38z m-64
-4 c7 4 8 -1 4 -11 -4 -12 -3 -15 5 -10 8 4 12 1 12 -10 0 -14 -6 -12 -30 11
-31 30 -41 47 -15 25 8 -6 19 -9 24 -5z m105 -61 c3 -8 2 -12 -4 -9 -6 3 -10
10 -10 16 0 14 7 11 14 -7z m116 -248 c0 -6 -7 -1 -15 10 -8 10 -15 23 -15 28
0 6 7 1 15 -10 8 -10 15 -23 15 -28z"/>
<path d="M2489 2352 c0 -4 -6 -73 -12 -153 l-13 -146 26 27 c28 30 167 123
184 124 6 0 19 8 28 17 16 17 12 20 -65 60 -45 23 -97 50 -114 60 -18 10 -33
15 -34 11z"/>
<path d="M6285 2334 c-16 -9 -57 -30 -90 -46 -58 -30 -59 -31 -35 -41 21 -8
22 -11 7 -14 -9 -3 -15 -9 -12 -14 4 -5 2 -9 -4 -9 -5 0 -11 5 -13 12 -3 8 -9
8 -24 -1 -12 -7 -14 -11 -4 -10 8 1 23 -1 33 -6 12 -5 25 -1 39 11 12 11 18
13 13 5 -6 -10 -4 -13 6 -9 9 3 41 -11 74 -33 37 -24 50 -37 37 -36 -11 0 -18
5 -15 10 3 5 -5 6 -18 3 -13 -3 -18 -3 -11 0 9 4 6 11 -10 23 -18 14 -39 17
-103 15 -44 -1 -87 2 -96 6 -13 7 -15 4 -11 -21 3 -17 0 -29 -7 -29 -6 0 -11
-7 -11 -15 0 -15 11 -19 40 -16 11 1 12 0 3 -7 -9 -6 -1 -14 28 -26 22 -10 38
-20 36 -23 -3 -2 -32 9 -66 26 -41 21 -59 36 -55 45 3 8 1 17 -5 21 -6 3 -11
11 -11 16 0 6 5 7 12 3 7 -5 8 -3 3 5 -5 9 -10 10 -18 2 -8 -8 -8 -14 1 -23
16 -16 15 -28 -3 -28 -13 0 -15 -24 -15 -152 0 -84 -3 -164 -7 -177 -5 -22 -4
-23 18 -18 13 4 54 10 91 13 62 6 73 4 130 -24 35 -17 82 -50 106 -73 l42 -41
0 133 c-1 219 -24 559 -39 559 -3 0 -19 -7 -36 -16z m-85 -165 c0 -6 -4 -7
-10 -4 -5 3 -10 11 -10 16 0 6 5 7 10 4 6 -3 10 -11 10 -16z m-117 -36 c-7 -2
-19 -2 -25 0 -7 3 -2 5 12 5 14 0 19 -2 13 -5z m127 -45 c0 -32 -16 -19 -18
15 -2 24 0 28 8 17 5 -8 10 -23 10 -32z m45 -38 c3 -5 -3 -10 -15 -10 -12 0
-18 5 -15 10 3 6 10 10 15 10 5 0 12 -4 15 -10z m-18 -37 c0 -8 -6 -9 -19 -2
-10 5 -18 11 -18 12 0 2 8 3 18 3 10 0 19 -6 19 -13z m43 -23 c8 -5 12 -11 10
-14 -3 -2 -14 2 -24 10 -22 15 -10 19 14 4z m69 -36 c2 -2 2 -7 -2 -10 -3 -3
-16 2 -29 11 l-23 17 25 -7 c14 -4 27 -9 29 -11z"/>
<path d="M2710 2210 c0 -6 6 -8 13 -4 6 4 9 3 5 -1 -5 -5 -20 -10 -35 -11 -14
-2 -29 -7 -32 -12 -3 -4 -20 -14 -38 -21 -17 -7 -41 -23 -53 -36 -13 -14 -26
-22 -30 -20 -7 4 -39 -24 -68 -59 -8 -10 -13 -46 -14 -94 0 -42 -2 -126 -5
-185 l-4 -108 63 51 c35 28 77 59 93 68 32 17 144 23 203 10 l33 -8 -2 145 c0
80 -5 148 -10 151 -5 3 -39 -11 -76 -30 -37 -20 -68 -34 -71 -32 -4 5 32 26
98 59 42 21 45 25 47 65 2 36 -1 42 -18 42 -11 0 -18 4 -15 8 3 5 -9 7 -27 5
-29 -2 -30 -2 -7 6 14 5 21 10 15 11 -52 9 -65 9 -65 0z m-117 -85 c-3 -9 -8
-14 -10 -11 -3 3 -2 9 2 15 9 16 15 13 8 -4z m-28 -35 c-3 -6 4 -10 17 -11 21
0 21 -1 4 -8 -11 -4 -23 -16 -27 -27 -7 -17 -8 -17 -8 -1 -1 10 -9 17 -22 17
-12 0 -19 5 -16 13 2 6 9 12 15 12 5 0 14 3 18 8 11 11 26 9 19 -3z m84 -101
c-13 -10 -28 -19 -34 -18 -5 0 -1 6 9 14 11 8 16 15 10 15 -5 0 -2 4 6 9 25
17 33 -1 9 -20z m-69 -39 c-14 -10 -43 -29 -65 -41 l-40 -21 30 26 c17 14 34
25 38 26 5 0 5 5 1 12 -4 6 -3 9 2 6 5 -3 18 -2 29 3 31 12 32 10 5 -11z m-60
-4 c0 -2 -8 -10 -17 -17 -16 -13 -17 -12 -4 4 13 16 21 21 21 13z"/>
<path d="M6067 2209 c7 -7 15 -10 18 -7 3 3 -2 9 -12 12 -14 6 -15 5 -6 -5z"/>
<path d="M359 2131 c11 -7 12 -19 4 -58 -83 -388 -99 -497 -124 -828 -16 -216
7 -601 45 -751 l12 -49 155 -12 c85 -6 186 -12 226 -12 85 -1 123 -13 123 -39
0 -10 16 -37 35 -60 37 -42 120 -82 173 -82 26 0 26 0 -10 25 -35 24 -88 98
-88 124 0 8 22 10 78 6 200 -13 510 -26 467 -19 -16 3 -124 16 -240 30 -115
13 -280 33 -365 44 -85 10 -218 26 -295 35 -215 24 -200 20 -213 63 -6 20 -13
56 -17 80 l-7 44 116 -8 116 -7 0 35 c0 57 -35 97 -114 129 -38 15 -85 43
-104 61 l-34 33 6 235 c5 224 13 306 50 552 15 98 66 352 81 404 7 23 -14 34
-65 34 -18 0 -21 -3 -11 -9z"/>
<path d="M8402 2133 c-19 -4 -23 -9 -18 -26 14 -52 78 -378 87 -447 33 -251
40 -336 46 -525 l6 -210 -29 -34 c-28 -33 -113 -81 -145 -81 -21 0 -79 -65
-79 -88 0 -9 -3 -28 -7 -40 -6 -24 -6 -24 78 -21 l84 3 -2 -49 -1 -50 10 52
c10 49 13 53 39 53 27 0 28 -2 23 -32 -14 -83 -27 -128 -37 -128 -7 0 -41 -5
-77 -10 -36 -5 -126 -16 -200 -25 -74 -9 -171 -21 -215 -26 -44 -5 -156 -19
-250 -30 -93 -11 -217 -27 -275 -34 l-105 -14 130 5 c211 9 275 13 363 19 62
5 82 4 82 -6 0 -27 -51 -97 -89 -124 -23 -15 -41 -29 -41 -30 0 -7 97 17 133
33 50 23 81 54 101 104 19 44 20 45 231 54 88 4 163 9 168 10 4 1 29 2 56 3
l49 1 15 72 c35 165 42 254 42 553 0 186 -5 344 -14 415 -15 130 -64 418 -85
501 -25 99 -29 141 -15 150 15 9 -15 10 -59 2z"/>
<path d="M3082 1555 c0 -16 2 -22 5 -12 2 9 2 23 0 30 -3 6 -5 -1 -5 -18z"/>
<path d="M5752 928 c-1 -136 -7 -280 -12 -319 -14 -101 -38 -211 -47 -219 -5
-4 -38 -18 -75 -30 -48 -17 -68 -29 -68 -41 0 -22 -11 -24 -225 -49 -297 -34
-348 -38 -640 -51 -398 -17 -762 0 -1240 56 -164 20 -175 22 -175 40 0 17 -36
37 -98 56 -23 7 -47 17 -52 24 -5 6 -19 58 -31 116 -19 90 -22 140 -23 379 0
151 -4 257 -7 235 -3 -22 -14 -85 -23 -140 -9 -55 -18 -136 -20 -180 l-4 -80
-98 -22 c-55 -11 -111 -24 -126 -27 -24 -5 -28 -1 -39 32 -60 187 -180 254
-315 176 -80 -46 -141 -180 -148 -325 l-3 -72 -49 -19 c-27 -10 -85 -36 -129
-58 -87 -43 -86 -43 43 -25 37 6 38 5 64 -47 58 -120 101 -146 250 -155 l103
-6 -40 30 c-92 69 -131 139 -145 258 -23 196 15 326 105 366 86 38 155 -6 189
-121 9 -29 16 -65 16 -79 0 -47 11 -53 66 -37 46 14 231 56 245 56 3 0 9 -73
13 -162 4 -93 17 -215 29 -283 l22 -120 237 -3 237 -2 7 46 7 47 76 -7 c471
-39 1111 -39 1558 0 l72 7 12 -47 11 -46 234 0 c129 0 234 2 234 5 0 3 6 38
14 78 26 130 35 210 37 339 1 70 5 132 9 138 6 10 169 -20 269 -50 19 -5 35
-9 36 -7 1 1 9 38 18 82 21 97 57 155 109 172 68 22 133 -10 168 -84 20 -40
24 -68 28 -176 4 -112 2 -136 -18 -196 -25 -79 -65 -132 -129 -172 l-45 -29
65 0 c164 0 233 35 290 145 l34 66 38 -6 c20 -3 56 -8 80 -11 23 -4 40 -4 37
-1 -3 3 -61 30 -130 61 l-125 55 -6 78 c-11 133 -42 222 -98 280 -54 57 -124
80 -195 64 -66 -16 -139 -102 -167 -199 -12 -40 -15 -43 -38 -36 -14 3 -71 16
-126 28 l-100 21 -3 70 c-1 39 -9 117 -18 175 -9 58 -20 128 -24 155 -4 29 -7
-55 -8 -197z"/>
<path d="M1208 1053 c6 -2 18 -2 25 0 6 3 1 5 -13 5 -14 0 -19 -2 -12 -5z"/>
<path d="M8398 1053 c6 -2 18 -2 25 0 6 3 1 5 -13 5 -14 0 -19 -2 -12 -5z"/>
<path d="M1008 1043 c23 -2 59 -2 80 0 20 2 1 4 -43 4 -44 0 -61 -2 -37 -4z"/>
<path d="M7808 1043 c23 -2 61 -2 85 0 23 2 4 4 -43 4 -47 0 -66 -2 -42 -4z"/>
<path d="M8198 1043 c29 -2 74 -2 100 0 26 2 2 3 -53 3 -55 0 -76 -1 -47 -3z"/>
<path d="M1572 909 c-30 -32 -75 -68 -100 -80 -26 -12 -60 -30 -76 -42 -30
-21 -65 -88 -66 -124 0 -27 27 -32 215 -41 l137 -7 -5 25 c-18 98 -37 223 -40
268 -3 29 -6 54 -8 55 -2 2 -28 -23 -57 -54z"/>
<path d="M7187 953 c-2 -5 -5 -28 -6 -53 -2 -25 -11 -92 -22 -150 -26 -148
-28 -140 29 -135 26 2 99 7 163 10 64 4 122 10 128 14 16 10 -1 85 -26 119
-11 14 -50 41 -88 61 -37 19 -92 59 -121 88 -29 29 -54 50 -57 46z"/>
<path d="M3155 925 c-19 -18 -25 -35 -25 -67 0 -63 21 -262 29 -270 21 -23
346 -79 549 -94 l93 -7 -7 44 c-9 57 -36 110 -81 160 -47 52 -98 80 -201 113
-111 36 -185 69 -243 111 -58 41 -81 44 -114 10z m130 -81 c-49 -72 -21 -163
55 -184 78 -21 134 14 155 97 12 46 13 47 20 20 25 -94 -47 -180 -151 -180
-81 0 -153 73 -154 156 0 58 43 125 82 126 15 1 14 -4 -7 -35z m296 -157 c-18
-18 -12 -52 14 -77 21 -20 30 -22 53 -14 15 5 34 23 42 39 l15 30 3 -29 c8
-68 -91 -104 -143 -51 -15 14 -25 36 -25 53 0 32 41 94 48 73 2 -7 -1 -18 -7
-24z"/>
<path d="M5590 937 c-41 -22 -70 -41 -70 -48 0 -3 11 -11 24 -18 33 -18 66
-82 66 -128 0 -83 -91 -161 -173 -149 -58 9 -100 37 -120 79 -19 39 -23 102
-7 112 6 3 10 -4 10 -18 0 -37 41 -90 83 -106 103 -39 194 68 143 168 -27 52
-39 55 -100 27 -31 -14 -93 -38 -138 -52 -109 -35 -145 -54 -194 -101 -47 -46
-80 -109 -90 -172 l-7 -44 94 7 c135 10 359 43 464 69 l90 22 6 50 c3 28 9 96
13 152 l8 103 -30 30 c-35 34 -38 35 -72 17z m-330 -244 c27 -34 22 -89 -11
-115 -30 -25 -94 -23 -119 2 -20 20 -29 87 -10 75 6 -3 10 -12 10 -19 0 -7 9
-21 19 -30 27 -25 72 -17 90 16 13 23 13 30 1 55 -8 15 -16 31 -18 36 -9 19
19 4 38 -20z"/>
<path d="M8225 796 c-26 -40 -44 -116 -27 -116 4 0 9 15 10 33 2 17 11 49 22
70 22 41 19 50 -5 13z"/>
<path d="M2500 800 c-9 -6 -10 -10 -3 -10 6 0 15 5 18 10 8 12 4 12 -15 0z"/>
<path d="M2557 659 c-30 -18 -47 -65 -47 -134 0 -78 19 -131 54 -147 22 -9 29
-8 47 8 49 43 64 146 33 224 -22 54 -50 70 -87 49z"/>
<path d="M6188 638 c-34 -48 -38 -151 -8 -213 20 -41 25 -46 53 -43 42 4 69
44 75 112 6 75 -5 124 -33 152 -33 33 -59 30 -87 -8z"/>
<path d="M428 553 c7 -3 16 -2 19 1 4 3 -2 6 -13 5 -11 0 -14 -3 -6 -6z"/>
<path d="M8338 553 c6 -2 18 -2 25 0 6 3 1 5 -13 5 -14 0 -19 -2 -12 -5z"/>
<path d="M588 533 c6 -2 18 -2 25 0 6 3 1 5 -13 5 -14 0 -19 -2 -12 -5z"/>
<path d="M7651 524 c0 -11 3 -14 6 -6 3 7 2 16 -1 19 -3 4 -6 -2 -5 -13z"/>
<path d="M7773 533 c9 -2 25 -2 35 0 9 3 1 5 -18 5 -19 0 -27 -2 -17 -5z"/>
<path d="M4101 468 c-5 -13 -17 -52 -26 -88 -10 -36 -22 -71 -28 -77 -5 -8
-35 -14 -71 -14 l-61 -2 50 -7 c28 -4 143 -13 257 -20 204 -13 434 -5 623 19
l60 8 -67 2 -67 1 -20 64 c-11 35 -23 80 -26 100 l-7 36 -304 0 -304 0 -9 -22z"/>
<path d="M6366 375 c-9 -26 -7 -32 5 -12 6 10 9 21 6 23 -2 3 -7 -2 -11 -11z"/>
<path d="M1528 363 c6 -2 18 -2 25 0 6 3 1 5 -13 5 -14 0 -19 -2 -12 -5z"/>
<path d="M7258 363 c6 -2 18 -2 25 0 6 3 1 5 -13 5 -14 0 -19 -2 -12 -5z"/>
<path d="M1220 252 c-40 -42 -93 -62 -166 -62 -65 0 -180 25 -213 46 l-26 17
20 -24 c11 -13 28 -30 38 -38 10 -7 15 -17 10 -22 -4 -4 -75 -20 -158 -34
-323 -57 -337 -53 163 -54 l452 -1 0 99 c0 94 -1 99 -22 105 -44 11 -63 5 -98
-32z"/>
<path d="M6297 265 c-15 -14 -24 -25 -19 -25 5 0 19 11 32 25 30 32 23 32 -13
0z"/>
<path d="M7480 183 l0 -103 453 1 c406 1 445 2 382 14 -130 25 -250 47 -265
49 -8 1 -41 6 -73 10 -64 9 -78 20 -51 42 18 15 18 15 -6 9 -55 -14 -207 -17
-244 -5 -44 14 -96 56 -96 76 0 12 -12 14 -50 13 l-50 -3 0 -103z"/>
</g>
</svg>
